<svg width="363" height="266" viewBox="0 0 363 266" fill="none" xmlns="http://www.w3.org/2000/svg">
<path d="M177.687 254.942L21.4956 165.112C16.5246 162.398 12.2599 157.931 17.1041 155.014L173.848 67.0963C176.202 65.6777 179.77 64.7525 182.16 66.1007L346.138 158.698C351.109 161.508 352.006 169.359 347.044 172.17L198.295 254.801C195.17 256.567 191.625 257.51 188.01 257.534C184.396 257.559 180.838 256.666 177.687 254.942Z" fill="#FF9494"/>
<path d="M304.614 168.399C296.003 173.377 287.229 178.091 278.709 183.193L293.993 191.695C298.575 188.647 315.434 180.109 319.826 176.805L304.614 168.399Z" fill="url(#paint0_linear_26_554)"/>
<path d="M247.19 214.129L133.03 151.085L73.0795 181.748L190.273 246.95C200.378 240.219 237.52 221.424 247.19 214.129Z" fill="url(#paint1_linear_26_554)"/>
<path d="M195.697 162.178C195.697 162.178 195.262 164.821 191.377 167.2C187.493 169.579 179.724 171.377 179.724 174.364C179.724 177.351 181.97 178.937 184.831 178.937C187.692 178.937 197.1 173.765 200.776 173.165C203.471 172.61 206.082 171.722 208.545 170.522C208.545 170.522 209.161 160.997 207.114 157.217C205.068 153.437 195.697 162.178 195.697 162.178Z" fill="#383838"/>
<path d="M216.531 177.756C216.531 177.756 208.382 190.488 207.332 192.673C206.426 194.612 204.615 198.462 205.693 200.233C207.866 203.758 216.259 201.115 218.369 198.639C221.23 195.255 222.462 188.294 223.476 187.501C224.483 186.627 225.438 185.697 226.337 184.717L227.849 174.408" fill="#383838"/>
<path d="M190.282 113.998L195.715 162.178C195.715 162.178 202.578 166.046 210.202 160.768V130.528L214.901 178.708C214.901 178.708 219.238 185.034 227.578 180.814L230.828 120.325L190.354 106.227" fill="#BE713D"/>
<path d="M129.625 89.9173H127.651C125.566 89.9173 123.876 91.5623 123.876 93.5916V156.019C123.876 158.048 125.566 159.693 127.651 159.693H129.625C131.711 159.693 133.401 158.048 133.401 156.019V93.5916C133.401 91.5623 131.711 89.9173 129.625 89.9173Z" fill="#CC4F00"/>
<path d="M206.888 175.465C206.888 172.906 204.756 170.831 202.125 170.831C199.495 170.831 197.363 172.906 197.363 175.465V235.857C197.363 238.417 199.495 240.492 202.125 240.492C204.756 240.492 206.888 238.417 206.888 235.857V175.465Z" fill="#CC4F00"/>
<path d="M247.181 145.084C247.181 142.525 245.048 140.45 242.418 140.45C239.788 140.45 237.655 142.525 237.655 145.084V214.129C237.655 216.688 239.788 218.763 242.418 218.763C245.048 218.763 247.181 216.688 247.181 214.129V145.084Z" fill="#CC4F00"/>
<path d="M93.081 106.641H91.1071C89.0218 106.641 87.3314 108.286 87.3314 110.315V172.743C87.3314 174.772 89.0218 176.417 91.1071 176.417H93.081C95.1663 176.417 96.8568 174.772 96.8568 172.743V110.315C96.8568 108.286 95.1663 106.641 93.081 106.641Z" fill="#CC4F00"/>
<path d="M84.4701 104.385V113.796L198.847 176.505L252.025 146.891V137.833" fill="#68E1FD"/>
<path d="M84.4701 104.385L138.173 72.6826L252.025 137.833L198.847 168.143L84.4701 104.385Z" fill="#F7E26B"/>
<path d="M102.588 90.0847L103.666 103.434C103.743 104.454 104.065 105.442 104.608 106.317C105.151 107.193 105.898 107.932 106.79 108.474C111.68 111.36 117.325 112.808 123.043 112.641C130.178 112.474 134.46 110.324 136.76 108.597C138.15 107.543 139.054 105.998 139.277 104.297L141.251 90.0847" fill="#68E1FD"/>
<path d="M106.101 94.2524C104.517 94.5432 101.294 94.7899 100.288 93.1687C99.9471 92.3188 99.9471 91.3751 100.288 90.5253C100.732 89.2829 101.81 89.2917 103.005 89.4591C104.445 89.6618 105.06 87.5207 103.611 87.318C101.982 87.0889 100.234 86.9744 99.0208 88.2696C98.5171 88.9088 98.1568 89.6437 97.9634 90.4269C97.77 91.2101 97.7477 92.0241 97.8981 92.8162C98.5047 96.7284 103.657 96.9487 106.772 96.3407C108.157 96.1292 107.541 93.9881 106.101 94.2524Z" fill="#68E1FD"/>
<path d="M145.588 87.6352C144.891 83.8024 140.627 83.3265 137.376 83.8728C135.927 84.1107 136.543 86.2519 137.983 86.014C139.794 85.7144 142.447 85.5998 143.243 87.6264C143.542 88.3754 143.642 89.23 142.936 89.6177C142.012 90.0466 140.975 90.1881 139.966 90.023C138.526 89.8292 137.91 91.9703 139.359 92.1642C141.11 92.4743 142.918 92.1847 144.475 91.3447C145.833 90.5253 145.842 89.0098 145.588 87.6352Z" fill="#68E1FD"/>
<path d="M121.911 100.676C132.582 100.676 141.233 95.934 141.233 90.0847C141.233 84.2355 132.582 79.4937 121.911 79.4937C111.239 79.4937 102.588 84.2355 102.588 90.0847C102.588 95.934 111.239 100.676 121.911 100.676Z" fill="#F5E3D7"/>
<path d="M121.911 97.3099C130.472 97.3099 137.412 94.0751 137.412 90.0847C137.412 86.0944 130.472 82.8595 121.911 82.8595C113.35 82.8595 106.409 86.0944 106.409 90.0847C106.409 94.0751 113.35 97.3099 121.911 97.3099Z" fill="#FFB70C"/>
<path d="M218.686 142.273C226.227 142.273 232.34 136.325 232.34 128.986C232.34 121.648 226.227 115.699 218.686 115.699C211.145 115.699 205.032 121.648 205.032 128.986C205.032 136.325 211.145 142.273 218.686 142.273Z" fill="#CFE872"/>
<path d="M205.231 128.264C209.659 128.405 213.779 130.176 214.91 134.678C215.499 137.04 215.463 139.85 216.024 142.009C216.895 142.177 217.78 142.263 218.668 142.265C218.903 142.265 219.13 142.265 219.356 142.265C218.598 141.352 218.004 140.321 217.6 139.216C216.413 136.106 216.287 132.511 214.467 129.647C212.158 126.026 208.654 125.523 205.267 126.501C205.156 127.084 205.083 127.672 205.05 128.264H205.231Z" fill="#EBFF99"/>
<path d="M212.004 137.225C211.687 133.207 209.287 131.533 205.24 131.409C205.615 133.383 206.444 135.249 207.666 136.866C208.888 138.484 210.47 139.811 212.294 140.749C212.149 139.56 212.094 138.379 212.004 137.225Z" fill="#EBFF99"/>
<path d="M223.304 123.021C225.912 124.51 228.302 125.911 230.222 128.264C230.981 129.189 231.617 130.205 232.114 131.286C232.497 129.239 232.377 127.134 231.766 125.141C231.155 123.147 230.069 121.323 228.596 119.815C227.123 118.307 225.306 117.159 223.291 116.463C221.277 115.768 219.122 115.545 217.002 115.813C214.213 117.91 221.448 121.955 223.304 123.021Z" fill="#EBFF99"/>
<path d="M229.081 132.114C228.265 130.635 227.15 129.331 225.803 128.281C227.497 131.477 228.261 135.064 228.012 138.652C228.596 138.129 229.133 137.557 229.615 136.943C230.009 135.321 229.821 133.617 229.081 132.114Z" fill="#EBFF99"/>
<path d="M224.418 140.661C226.002 134.784 223.204 128.167 218.605 124.219C215.782 121.951 212.404 120.433 208.798 119.814C207.875 120.747 207.098 121.807 206.49 122.959C207.834 122.747 209.209 122.798 210.532 123.112C211.856 123.425 213.101 123.993 214.195 124.783C216.785 126.642 218.116 129.436 218.976 132.352C219.764 134.995 220.153 140.635 223.503 141.384C223.793 141.278 224.055 141.137 224.327 141.005C224.345 140.887 224.376 140.772 224.418 140.661Z" fill="#EBFF99"/>
<path d="M211.723 150.732C216.524 150.732 220.415 146.945 220.415 142.273C220.415 137.602 216.524 133.815 211.723 133.815C206.922 133.815 203.031 137.602 203.031 142.273C203.031 146.945 206.922 150.732 211.723 150.732Z" fill="#FF1710"/>
<path d="M207.205 135.057C205.303 136.168 203.911 137.945 203.313 140.023C202.715 142.101 202.956 144.323 203.988 146.233C205.02 148.144 206.764 149.597 208.862 150.296C210.961 150.995 213.254 150.886 215.273 149.992C209.704 146.556 205.584 140.802 207.205 135.057Z" fill="#B71D1D"/>
<path d="M207.54 152.116C207.54 152.116 208.545 155.508 206.634 156.521C204.724 157.534 183.409 144.274 184.813 142.511C186.216 140.749 204.271 149.402 207.54 152.116Z" fill="#FF780B"/>
<path d="M194.8 151.886C194.8 151.886 195.805 155.279 193.895 156.292C191.984 157.305 170.679 144.036 172.037 142.273C173.395 140.511 191.531 149.164 194.8 151.886Z" fill="#FF780B"/>
<path d="M204.796 144.723C204.796 144.723 205.801 148.115 203.891 149.129C201.98 150.142 180.684 136.872 182.078 135.101C183.473 133.33 201.528 142.009 204.796 144.723Z" fill="#FF780B"/>
<path d="M171.711 130.246L180.711 125.118C182.651 124.009 184.259 122.426 185.377 120.526C186.494 118.625 187.082 116.474 187.082 114.285C187.082 112.095 186.494 109.944 185.377 108.044C184.259 106.143 182.651 104.56 180.711 103.451L172.354 98.6668C170.441 97.5682 168.27 96.9683 166.049 96.9251C163.828 96.8819 161.634 97.3968 159.677 98.4201L149.889 103.522C147.835 104.597 146.118 106.193 144.921 108.142C143.724 110.091 143.092 112.318 143.092 114.589C143.092 116.859 143.724 119.087 144.921 121.035C146.118 122.984 147.835 124.581 149.889 125.656L159.044 130.466C160.997 131.492 163.188 132.011 165.407 131.972C167.626 131.934 169.797 131.339 171.711 130.246Z" fill="#F7F7F7"/>
<path d="M175.985 79.8461C175.541 80.1897 175.079 80.5422 174.681 80.9035C175.007 80.4453 175.351 80.0223 175.668 79.5201C176.075 78.9121 175.07 78.3482 174.672 78.9562L174.427 79.3086H174.355C174.34 79.2282 174.308 79.1516 174.262 79.0835C174.215 79.0154 174.155 78.9573 174.085 78.9128C174.014 78.8682 173.935 78.8381 173.853 78.8244C173.77 78.8106 173.685 78.8135 173.603 78.8328C173.712 78.6566 173.83 78.4804 173.929 78.3041C173.988 78.2155 174.02 78.113 174.022 78.0078C174.025 77.9026 173.997 77.7987 173.943 77.7077C173.889 77.6166 173.81 77.5419 173.715 77.4917C173.62 77.4415 173.512 77.4177 173.404 77.423C173.667 77.0353 173.938 76.6476 174.183 76.2511C174.536 75.6872 173.748 75.1497 173.277 75.5727C172.807 75.9956 172.236 76.5419 171.738 77.0353L171.792 76.9384C171.839 76.8528 171.862 76.757 171.86 76.6601C171.857 76.5633 171.829 76.4687 171.778 76.3854C171.727 76.3022 171.655 76.2332 171.569 76.1849C171.483 76.1367 171.385 76.111 171.285 76.1102H171.131C171.073 76.1222 171.017 76.1462 170.968 76.1807H170.914C170.884 76.2012 170.857 76.2248 170.833 76.2511C170.788 76.1589 170.718 76.0799 170.632 76.022C170.545 75.9641 170.445 75.9294 170.34 75.9213C170.235 75.9133 170.13 75.9322 170.036 75.9762C169.941 76.0202 169.86 76.0876 169.8 76.1718L166.088 81.9079C164.902 83.7407 163.698 86.4633 162.059 87.9524C160.945 88.9657 156.318 89.7763 156.988 92.217C157.014 92.3124 157.065 92.3994 157.137 92.469C157.208 92.5387 157.298 92.5886 157.396 92.6135L157.722 92.6752C157.431 92.974 157.219 93.3369 157.104 93.7328C156.989 94.1287 156.974 94.5458 157.061 94.9485C157.08 95.0258 157.114 95.0986 157.163 95.1627C157.211 95.2268 157.272 95.2809 157.342 95.3219C157.412 95.3629 157.489 95.3899 157.57 95.4015C157.651 95.413 157.733 95.4088 157.812 95.3891C157.662 96.0122 157.61 96.654 157.658 97.2923C157.654 97.5268 157.729 97.7561 157.871 97.9454C158.013 98.1347 158.215 98.2736 158.446 98.3408C158.669 98.3868 158.902 98.349 159.098 98.2351C159.198 99.7418 159.831 101.019 161.733 100.967C161.815 100.964 161.895 100.944 161.968 100.909C162.041 100.874 162.106 100.823 162.158 100.761C162.209 100.7 162.246 100.628 162.267 100.55C162.287 100.473 162.29 100.393 162.276 100.315C162.381 100.223 162.448 100.098 162.466 99.9621C162.566 99.1426 162.33 98.288 162.466 97.4861C162.792 95.7239 164.775 95.7239 166.179 96.4112C166.523 96.5786 167.084 96.4112 167.084 95.9266L166.894 94.3934C166.974 94.3283 167.033 94.2429 167.066 94.1467C168.872 88.7758 172.283 84.0512 176.863 80.5774C177.388 80.1986 176.564 79.4055 175.985 79.8461Z" fill="#FFC197"/>
<path d="M191.387 66.6205C191.387 66.6205 178.058 81.0797 176.836 82.2692C176.836 82.2692 168.415 77.8636 167.184 78.5597C167.184 78.5597 188.326 48.1875 194.293 46.2931C200.26 44.3987 196.593 65.1226 191.387 66.6205Z" fill="#F7F7F7"/>
<path d="M192.962 71.3962C192.962 71.3962 191.667 58.9195 191.667 58.1794C191.667 57.4393 193.36 46.2843 195.642 46.2843C197.924 46.2843 204.833 42.284 215.073 47.8791C225.314 53.4742 227.08 57.9239 227.623 61.2721C228.166 64.6204 230.167 85.3443 230.167 91.0716C230.167 96.7989 213.38 97.9708 213.38 97.9708" fill="#F7F7F7"/>
<path d="M197.915 46.2931C197.915 46.2931 196.104 53.2187 196.104 58.1089C196.118 61.1927 196.421 64.2688 197.009 67.299L206.761 70.6384C206.761 70.6384 205.783 48.7955 217.065 46.2931L219.782 48.5576C219.782 48.5576 212.792 48.9188 210.953 56.6727C209.851 61.5317 209.618 66.5394 210.265 71.4755L221.62 76.8503L230.167 84.3574V121.47L223.422 122.66L197.299 107.857C197.299 107.857 197.788 89.9526 197.299 88.2872C196.81 86.6219 192.718 71.6253 192.962 71.3785C193.46 70.0299 193.883 68.6564 194.23 67.2637C194.23 67.2637 192.953 50.4167 195.642 46.2755L197.915 46.2931Z" fill="#68E1FD"/>
<path d="M202.134 98.5875C201.292 99.125 200.423 99.6449 199.563 100.165C199.771 99.9533 200.007 99.7682 200.197 99.5391C200.264 99.4611 200.308 99.3666 200.323 99.266C200.707 98.8357 201.058 98.3793 201.374 97.9003C201.443 97.7994 201.473 97.677 201.455 97.5566L201.872 97.2218C201.944 97.1617 201.999 97.0835 202.029 96.9956C202.059 96.9078 202.064 96.8136 202.044 96.723C202.024 96.6325 201.978 96.5491 201.913 96.4818C201.847 96.4144 201.764 96.3656 201.673 96.3407C201.647 96.2685 201.604 96.2033 201.548 96.1503C201.491 96.0973 201.423 96.058 201.348 96.0357C201.273 96.0134 201.193 96.0086 201.116 96.0218C201.039 96.035 200.966 96.0657 200.903 96.1116C200.441 96.42 199.997 96.746 199.536 97.0632C199.253 97.1318 198.977 97.2262 198.712 97.3451C199.264 96.7724 199.825 96.2085 200.369 95.5829C200.425 95.5283 200.469 95.4622 200.497 95.3893C200.524 95.3164 200.535 95.2384 200.528 95.161C200.521 95.0836 200.497 95.0087 200.457 94.9415C200.417 94.8743 200.362 94.8165 200.296 94.7723C200.849 94.2877 200.034 93.4947 199.481 93.9793L198.848 94.552C198.823 94.5234 198.795 94.4969 198.766 94.4727L199.201 94.0498C199.644 93.4947 198.92 92.7193 198.386 93.2567L198.114 93.5387C198.106 93.4333 198.066 93.3324 198.001 93.248C197.936 93.1635 197.847 93.099 197.745 93.0619C197.643 93.0249 197.533 93.0169 197.427 93.039C197.32 93.061 197.223 93.1121 197.145 93.1863C194.954 95.4184 192.736 97.6271 190.49 99.8123C189.381 101.006 188.17 102.106 186.868 103.099C185.383 104.103 184.025 104.13 182.341 104.394C178.149 105.029 177.325 108.659 178.583 112.236C178.628 112.379 178.727 112.5 178.86 112.573C178.993 112.647 179.15 112.668 179.299 112.633L179.996 112.492C180.064 112.477 180.128 112.45 180.186 112.412C180.539 113.593 181.309 114.289 182.948 113.39C182.98 113.37 183.011 113.346 183.038 113.32C183.699 114.201 184.668 114.201 185.655 113.716C185.713 113.687 185.765 113.649 185.809 113.602C185.913 113.736 186.051 113.841 186.21 113.908C186.369 113.974 186.543 113.999 186.714 113.981C187.366 113.919 187.692 113.285 187.774 112.721C187.794 112.1 187.705 111.48 187.511 110.888C188.547 110.475 189.529 109.942 190.436 109.302C191.713 108.324 192.247 107.02 193.324 105.883C195.796 103.24 199.762 101.478 202.822 99.5479C203.339 99.1603 202.759 98.1822 202.134 98.5875Z" fill="#FFC197"/>
<path d="M212.221 59.0164C212.221 59.0164 209.161 73.925 207.621 77.52C206.082 81.1149 194.293 93.9176 194.293 93.9176C194.293 93.9176 200.351 102.561 201.301 101.848C207.836 95.586 213.697 88.6923 218.795 81.2735C226.763 69.819 228.909 62.77 226.944 59.0605C224.979 55.351 214.593 52.9103 212.221 59.0164Z" fill="#F7F7F7"/>
<path d="M201.962 49.3594C201.962 49.3594 203.348 53.3244 203.674 53.765C203.674 53.765 208.409 54.0822 210.274 46.8658L209.867 41.2354" fill="#EFAF84"/>
<path d="M212.638 32.0542C212.638 32.0542 214.258 34.1953 213.543 36.3453C212.828 38.4952 212.031 38.83 212.031 38.83C212.031 38.83 212.936 43.1211 209.016 44.0198C205.095 44.9185 203.103 37.244 204.724 36.0897C206.345 34.9355 212.638 32.0542 212.638 32.0542Z" fill="#6D3421"/>
<path d="M195.479 37.6581C194.574 37.3145 196.756 50.637 199.192 51.43C201.627 52.223 207.54 47.9055 208.246 46.9187C208.725 46.0067 209.003 45.0072 209.061 43.9846C209.061 43.9846 211.497 40.7156 209.523 40.2574C209.263 40.1972 208.993 40.1912 208.73 40.2398C208.468 40.2885 208.219 40.3907 208 40.5397C207.781 40.6886 207.597 40.8811 207.46 41.1043C207.323 41.3275 207.236 41.5764 207.205 41.8346L206.39 42.8479L205.539 37.6581C205.539 37.6581 198.721 38.9357 195.479 37.6581Z" fill="#FFC197"/>
<path d="M194.791 37.6581V38.3982C194.79 38.6389 194.883 38.8708 195.051 39.0474C195.219 39.2239 195.45 39.332 195.697 39.3498C198.413 39.623 207.123 39.9314 213.806 33.931V31.2876L201.129 34.5213" fill="#757881"/>
<path d="M191.414 30.8118C191.414 30.8118 189.44 36.5655 195.47 37.6933C197.11 38.0651 198.828 37.9334 200.387 37.3165C201.947 36.6996 203.272 35.6277 204.181 34.2482C204.181 34.2482 206.49 36.2924 211.361 34.3363C216.232 32.3802 214.376 26.9701 212.638 25.948C212.638 25.948 213.335 21.3221 207.531 20.9785C201.727 20.6349 199.201 23.2518 199.201 23.2518C199.201 23.2518 187.357 23.9302 191.414 30.8118Z" fill="#68E1FD"/>
<path d="M292.463 122.633C294.074 122.54 295.684 122.843 297.144 123.514C298.635 124.337 299.796 125.626 300.44 127.171C301.155 128.643 301.481 130.74 302.975 131.691C303.561 131.994 304.068 132.422 304.46 132.942C304.83 133.447 305.066 134.033 305.147 134.648C305.227 135.263 305.15 135.888 304.922 136.467C304.261 137.762 301.49 138.555 300.223 138.317" fill="#8FDB5E"/>
<path d="M291.195 122.801C289.321 122.967 287.547 123.696 286.119 124.888C284.691 126.081 283.68 127.676 283.227 129.453C282.757 131.249 282.735 133.128 283.164 134.934C283.526 136.388 284.404 138.908 286.233 139.013C288.696 139.163 289.493 136.916 290.272 135.075C291.05 133.233 291.865 131.207 293.839 130.475C294.809 130.121 295.864 130.05 296.875 130.273C297.885 130.495 298.806 131 299.525 131.726L291.195 122.801Z" fill="#1E8C0E"/>
<path d="M302.423 132.537C300.938 130.66 299.706 128.616 298.258 126.704C297.448 125.455 296.477 124.312 295.369 123.303C291.938 121.682 287.628 123.171 285.101 126.008C285.455 126.114 285.934 126.131 286.197 126.228C287.715 126.798 289.063 127.728 290.118 128.933C291.63 130.563 292.834 132.563 294.156 134.299C296.338 137.119 299.227 139.436 302.957 137.753C305.384 136.67 303.518 133.868 302.423 132.537Z" fill="#8FDB5E"/>
<path d="M314.556 108.421C314.556 108.421 322.279 107.83 322.135 119.708C321.99 131.585 310.454 123.779 312.989 116.615" fill="#1E8C0E"/>
<path d="M313.442 120.113C313.361 116.501 317.535 113.857 321.057 113.39C320.674 111.873 319.777 110.526 318.51 109.567C317.243 108.608 315.681 108.092 314.076 108.104C308.788 108.236 304.831 113.461 303.935 119.62C303.039 125.779 307.856 129.665 307.856 129.665L310.409 131.779C315.099 129.991 313.288 123.409 313.442 120.113Z" fill="#8FDB5E"/>
<path d="M334.467 128.616C334.348 126.362 333.73 124.159 332.656 122.157C332.166 121.198 331.459 120.359 330.589 119.703C329.719 119.047 328.708 118.591 327.631 118.369L323.285 126.51C323.285 126.51 329.759 115.487 327.115 123.973C324.471 132.458 333.199 141.983 334.358 129.321C334.44 129.092 334.458 128.854 334.467 128.616Z" fill="#1E8C0E"/>
<path d="M303.754 149.825C303.754 149.825 297.941 153.499 299.562 162.107C300.132 165.089 300.996 168.01 302.142 170.831C303.265 173.624 304.098 177.245 306.995 178.822C309.712 180.294 313.877 180.585 316.602 178.946C319.092 177.465 319.98 174.099 320.894 171.597C321.983 168.517 322.73 165.333 323.122 162.099C325.856 141.304 303.754 149.825 303.754 149.825Z" fill="#68E1FD"/>
<path d="M311.577 154.072C316.258 154.072 320.052 152.734 320.052 151.085C320.052 149.435 316.258 148.098 311.577 148.098C306.896 148.098 303.102 149.435 303.102 151.085C303.102 152.734 306.896 154.072 311.577 154.072Z" fill="#68E1FD"/>
<path d="M312.265 135.189C311.079 132.405 308.87 130.07 308.172 127.092C307.733 125.074 307.91 122.976 308.68 121.055C309.451 119.134 310.782 117.475 312.51 116.28C313.152 115.822 312.51 114.765 311.876 115.223C306.443 119.056 305.411 125.594 308.571 131.163C309.549 132.925 310.825 134.546 311.423 136.449C312.202 138.934 311.332 140.723 310.137 142.617C310.204 140.776 309.528 138.983 308.254 137.621C306.85 136.352 304.768 136.141 303.02 135.568C299.643 134.458 296.682 132.581 296.103 128.924C295.985 128.149 294.772 128.484 294.898 129.25C295.369 132.246 297.389 134.387 300.114 135.744C301.745 136.415 303.425 136.969 305.139 137.401C305.883 137.679 306.561 138.102 307.131 138.645C307.701 139.187 308.151 139.837 308.453 140.555C309.25 142.317 308.707 143.577 308.263 145.322C307.674 147.578 306.751 149.525 308.345 151.657C308.815 152.283 309.902 151.657 309.431 151.041C306.887 147.631 310.952 144.388 312.319 141.463C312.774 140.475 313.004 139.403 312.994 138.32C312.985 137.238 312.736 136.17 312.265 135.189Z" fill="#1E8C0E"/>
<path d="M327.893 127.717C322.542 126.836 318.893 130.837 319.21 135.877C319.32 137.142 319.56 138.393 319.925 139.612C320.17 140.494 320.831 141.983 320.632 142.855C320.456 143.641 320.085 144.373 319.552 144.988C319.018 145.602 318.338 146.08 317.571 146.379C315.244 147.446 313.75 148.732 313.044 151.208C312.999 151.363 313.02 151.53 313.102 151.67C313.183 151.811 313.319 151.914 313.478 151.957C313.638 152 313.809 151.98 313.953 151.901C314.098 151.821 314.204 151.689 314.248 151.534C315.489 147.128 321.827 147.754 321.872 142.899C321.872 140.529 320.595 138.3 320.45 135.921C320.188 131.771 322.977 128.149 327.549 128.933C328.346 129.03 328.681 127.858 327.893 127.717Z" fill="#1E8C0E"/>
<path d="M332.683 122.157C330.61 118.43 326.834 117.558 323.14 118.633C322.629 118.835 322.133 119.07 321.655 119.338C312.356 126.043 318.938 141.181 320.387 141.066C325.123 140.687 324.634 137.974 326.218 130.387C326.49 128.675 327.389 127.116 328.751 126C330.113 124.883 331.845 124.285 333.625 124.316C333.376 123.571 333.061 122.849 332.683 122.157Z" fill="#8FDB5E"/>
<path d="M330.646 119.69C329.096 119.454 327.508 119.682 326.093 120.342C324.679 121.003 323.504 122.066 322.723 123.391C319.328 128.924 320.106 135.374 320.559 141.472C320.613 142.247 321.872 142.256 321.809 141.472C321.483 137.066 320.84 132.66 322.071 128.361C322.678 126.237 323.402 123.867 325.15 122.351C326.09 121.54 327.255 121.016 328.499 120.842C329.743 120.668 331.012 120.853 332.149 121.373L331.678 120.748C331.325 120.404 330.981 120.052 330.646 119.69Z" fill="#1E8C0E"/>
<path d="M116.387 60.25C114.93 59.4834 112.874 59.0517 111.969 57.6066C110.665 55.4567 113.59 54.0822 115.21 53.4566C116.451 52.9808 115.908 50.9982 114.649 51.4829C112.838 52.1701 111.027 52.9896 110.058 54.7254C109.655 55.482 109.507 56.343 109.635 57.1862C109.764 58.0293 110.162 58.8115 110.774 59.4217C112.241 60.999 114.396 61.2985 116.116 62.5057C116.967 63.1136 117.818 64.1357 117.293 65.1931C116.768 66.2504 115.482 66.5764 114.423 66.832C110.937 67.669 106.4 69.0348 106.418 73.3523C106.448 74.1926 106.705 75.0104 107.165 75.7224C107.625 76.4343 108.27 77.0151 109.035 77.4054C110.982 78.4716 113.255 78.3658 115.373 78.1896C116.713 78.0751 116.723 76.0309 115.373 76.1454C113.445 76.304 111.181 76.5595 109.56 75.3083C107.94 74.0572 108.329 72.2332 109.56 70.9732C112.005 68.4973 116.279 69.5546 118.615 66.9113C120.761 64.4265 118.823 61.5276 116.387 60.25Z" fill="#FFB70C"/>
<path d="M130.92 63.2723C129.942 62.7612 128.566 62.4704 127.959 61.51C127.054 60.0738 129.046 59.1486 130.123 58.7257C130.956 58.4085 130.594 57.078 129.752 57.404C128.49 57.7446 127.397 58.5175 126.674 59.5804C126.403 60.0872 126.304 60.664 126.39 61.2287C126.477 61.7935 126.744 62.3174 127.153 62.726C128.131 63.7833 129.589 63.986 130.775 64.7878C131.346 65.1931 131.916 65.8804 131.563 66.55C131.335 66.8565 131.041 67.1108 130.702 67.295C130.363 67.4792 129.986 67.5888 129.598 67.6162C127.262 68.1801 124.229 69.0877 124.238 72.0218C124.258 72.5848 124.432 73.1325 124.74 73.6092C125.049 74.0859 125.481 74.4745 125.994 74.7356C127.329 75.3248 128.816 75.5061 130.259 75.2555C131.165 75.185 131.165 73.8105 130.259 73.8898C128.964 73.9955 127.452 74.1629 126.366 73.3258C126.149 73.148 125.974 72.9261 125.854 72.6758C125.734 72.4254 125.672 72.1526 125.672 71.8764C125.672 71.6002 125.734 71.3274 125.854 71.077C125.974 70.8266 126.149 70.6048 126.366 70.427C128.005 68.7704 130.893 69.4753 132.414 67.7043C133.845 66.0742 132.55 64.0917 130.92 63.2723Z" fill="#FFB70C"/>
<path d="M166.912 102.923C166.672 102.923 166.442 103.015 166.272 103.181C166.102 103.346 166.007 103.57 166.007 103.804C166.007 104.037 166.102 104.262 166.272 104.427C166.442 104.592 166.672 104.685 166.912 104.685C167.152 104.685 167.382 104.592 167.552 104.427C167.722 104.262 167.817 104.037 167.817 103.804C167.817 103.57 167.722 103.346 167.552 103.181C167.382 103.015 167.152 102.923 166.912 102.923Z" fill="#FFB70C"/>
<path d="M155.367 107.804C155.127 107.804 154.897 107.897 154.727 108.062C154.557 108.227 154.462 108.451 154.462 108.685C154.462 108.919 154.557 109.143 154.727 109.308C154.897 109.473 155.127 109.566 155.367 109.566C155.608 109.566 155.838 109.473 156.008 109.308C156.178 109.143 156.273 108.919 156.273 108.685C156.273 108.451 156.178 108.227 156.008 108.062C155.838 107.897 155.608 107.804 155.367 107.804Z" fill="#FFB70C"/>
<path d="M173.938 119.532C173.698 119.532 173.468 119.625 173.298 119.79C173.128 119.955 173.033 120.179 173.033 120.413C173.033 120.647 173.128 120.871 173.298 121.036C173.468 121.201 173.698 121.294 173.938 121.294C174.179 121.294 174.409 121.201 174.579 121.036C174.748 120.871 174.844 120.647 174.844 120.413C174.844 120.179 174.748 119.955 174.579 119.79C174.409 119.625 174.179 119.532 173.938 119.532Z" fill="#FFB70C"/>
<path d="M167.166 111.223C166.925 111.223 166.695 111.316 166.525 111.481C166.356 111.646 166.26 111.87 166.26 112.104C166.26 112.338 166.356 112.562 166.525 112.727C166.695 112.892 166.925 112.985 167.166 112.985C167.406 112.985 167.636 112.892 167.806 112.727C167.976 112.562 168.071 112.338 168.071 112.104C168.071 111.87 167.976 111.646 167.806 111.481C167.636 111.316 167.406 111.223 167.166 111.223Z" fill="#FFB70C"/>
<path d="M157.369 120.016C157.128 120.016 156.898 120.109 156.728 120.274C156.558 120.44 156.463 120.664 156.463 120.897C156.463 121.131 156.558 121.355 156.728 121.521C156.898 121.686 157.128 121.779 157.369 121.779C157.609 121.779 157.839 121.686 158.009 121.521C158.179 121.355 158.274 121.131 158.274 120.897C158.274 120.664 158.179 120.44 158.009 120.274C157.839 120.109 157.609 120.016 157.369 120.016Z" fill="#FFB70C"/>
<path d="M151.094 115.866C150.854 115.866 150.623 115.959 150.453 116.124C150.284 116.29 150.188 116.514 150.188 116.747C150.188 116.981 150.284 117.205 150.453 117.37C150.623 117.536 150.854 117.629 151.094 117.629C151.334 117.629 151.564 117.536 151.734 117.37C151.904 117.205 151.999 116.981 151.999 116.747C151.999 116.514 151.904 116.29 151.734 116.124C151.564 115.959 151.334 115.866 151.094 115.866Z" fill="#FFB70C"/>
<path d="M167.41 125.391C167.17 125.391 166.94 125.484 166.77 125.649C166.6 125.815 166.505 126.039 166.505 126.272C166.505 126.506 166.6 126.73 166.77 126.895C166.94 127.061 167.17 127.153 167.41 127.153C167.65 127.153 167.88 127.061 168.05 126.895C168.22 126.73 168.315 126.506 168.315 126.272C168.315 126.039 168.22 125.815 168.05 125.649C167.88 125.484 167.65 125.391 167.41 125.391Z" fill="#FFB70C"/>
<path d="M178.203 115.62C177.963 115.62 177.733 115.712 177.563 115.878C177.393 116.043 177.298 116.267 177.298 116.501C177.298 116.734 177.393 116.958 177.563 117.124C177.733 117.289 177.963 117.382 178.203 117.382C178.443 117.382 178.674 117.289 178.843 117.124C179.013 116.958 179.109 116.734 179.109 116.501C179.109 116.267 179.013 116.043 178.843 115.878C178.674 115.712 178.443 115.62 178.203 115.62Z" fill="#FFB70C"/>
<path d="M166.912 117.091C166.672 117.091 166.442 117.184 166.272 117.349C166.102 117.514 166.007 117.738 166.007 117.972C166.007 118.206 166.102 118.43 166.272 118.595C166.442 118.76 166.672 118.853 166.912 118.853C167.152 118.853 167.382 118.76 167.552 118.595C167.722 118.43 167.817 118.206 167.817 117.972C167.817 117.738 167.722 117.514 167.552 117.349C167.382 117.184 167.152 117.091 166.912 117.091Z" fill="#FFB70C"/>
<path d="M175.441 106.095C175.201 106.095 174.971 106.187 174.801 106.353C174.631 106.518 174.536 106.742 174.536 106.976C174.536 107.209 174.631 107.434 174.801 107.599C174.971 107.764 175.201 107.857 175.441 107.857C175.682 107.857 175.912 107.764 176.082 107.599C176.251 107.434 176.347 107.209 176.347 106.976C176.347 106.742 176.251 106.518 176.082 106.353C175.912 106.187 175.682 106.095 175.441 106.095Z" fill="#FFB70C"/>
<defs>
<linearGradient id="paint0_linear_26_554" x1="293.251" y1="188.841" x2="304.223" y2="171.824" gradientUnits="userSpaceOnUse">
<stop offset="0.02" stop-color="#FF8D73" stop-opacity="0"/>
<stop offset="1" stop-color="#FF836A"/>
</linearGradient>
<linearGradient id="paint1_linear_26_554" x1="28649.8" y1="23456.1" x2="30509.3" y2="18358.6" gradientUnits="userSpaceOnUse">
<stop offset="0.02" stop-color="#FF8D73" stop-opacity="0"/>
<stop offset="1" stop-color="#FF836A"/>
</linearGradient>
</defs>
</svg>
