<svg width="246" height="197" viewBox="0 0 246 197" fill="none" xmlns="http://www.w3.org/2000/svg">
<path d="M219.601 138.569C219.604 145.742 217.615 152.769 213.864 158.83C210.114 164.891 204.757 169.737 198.418 172.803C196.207 173.875 193.895 174.715 191.518 175.309C188.602 176.056 185.606 176.432 182.6 176.429C175.28 176.429 168.125 174.209 162.038 170.049C155.952 165.889 151.209 159.976 148.407 153.058C145.606 146.14 144.873 138.527 146.301 131.183C147.729 123.839 151.254 117.093 156.43 111.798C161.606 106.503 168.201 102.897 175.38 101.436C182.559 99.9754 190 100.725 196.763 103.591C203.526 106.456 209.306 111.309 213.373 117.535C217.439 123.761 219.61 131.081 219.61 138.569H219.601Z" fill="#BBE06C"/>
<path d="M182.6 177.312C179.557 177.315 176.525 176.941 173.57 176.2C171.146 175.599 168.788 174.747 166.532 173.659C158.737 169.923 152.419 163.581 148.619 155.68C144.818 147.779 143.763 138.789 145.626 130.192C147.489 121.594 152.159 113.903 158.868 108.385C165.576 102.866 173.922 99.8504 182.53 99.8339C191.138 99.8175 199.495 102.801 206.223 108.294C212.951 113.787 217.65 121.46 219.544 130.05C221.439 138.64 220.416 147.634 216.645 155.55C212.874 163.466 206.579 169.831 198.798 173.597C196.546 174.695 194.191 175.556 191.768 176.165C188.77 176.929 185.69 177.314 182.6 177.312V177.312ZM182.6 101.591C177.483 101.594 172.424 102.708 167.759 104.86C163.094 107.011 158.929 110.152 155.539 114.074C152.149 117.995 149.612 122.608 148.095 127.608C146.578 132.608 146.116 137.88 146.74 143.076C147.364 148.272 149.059 153.273 151.713 157.749C154.367 162.224 157.92 166.073 162.137 169.039C166.353 172.005 171.138 174.021 176.173 174.955C181.208 175.888 186.38 175.717 191.346 174.453C193.658 173.873 195.906 173.055 198.056 172.009C205.477 168.416 211.482 162.345 215.082 154.797C218.683 147.248 219.664 138.67 217.865 130.475C216.067 122.28 211.595 114.955 205.185 109.705C198.776 104.456 190.811 101.594 182.6 101.591Z" fill="#093F68"/>
<path d="M198.418 166.292V172.794C196.207 173.867 193.895 174.706 191.518 175.3C188.602 176.05 185.607 176.429 182.6 176.429C177.175 176.447 171.813 175.242 166.894 172.9V166.292C166.896 163.396 168.022 160.62 170.024 158.574C172.027 156.527 174.741 155.377 177.572 155.377H187.775C190.6 155.384 193.307 156.537 195.302 158.583C197.298 160.629 198.418 163.402 198.418 166.292Z" fill="#F56132"/>
<path d="M182.6 177.312C179.557 177.315 176.525 176.941 173.57 176.2C171.146 175.599 168.788 174.747 166.532 173.659C166.383 173.589 166.257 173.477 166.169 173.336C166.08 173.196 166.033 173.032 166.031 172.865V166.292C166.036 163.163 167.254 160.164 169.417 157.952C171.58 155.741 174.513 154.497 177.572 154.495H187.775C190.827 154.507 193.751 155.754 195.907 157.965C198.063 160.175 199.276 163.169 199.281 166.292V172.794C199.28 172.961 199.234 173.123 199.147 173.264C199.06 173.404 198.936 173.517 198.789 173.588C196.537 174.687 194.182 175.547 191.76 176.156C188.764 176.922 185.688 177.311 182.6 177.312V177.312ZM167.756 172.3C175.162 175.701 183.469 176.459 191.346 174.453C193.482 173.917 195.564 173.175 197.564 172.238V166.292C197.56 163.636 196.527 161.091 194.693 159.212C192.858 157.334 190.371 156.275 187.775 156.268H177.563C174.964 156.271 172.471 157.327 170.631 159.206C168.791 161.084 167.755 163.632 167.748 166.292L167.756 172.3Z" fill="#093F68"/>
<path d="M180.116 156.463L183.014 170.65L185.472 156.463H180.116Z" fill="#093F68"/>
<path d="M183.014 171.524C182.813 171.528 182.618 171.461 182.46 171.334C182.303 171.207 182.194 171.027 182.152 170.827L179.254 156.639C179.228 156.509 179.231 156.375 179.262 156.247C179.294 156.119 179.353 155.999 179.436 155.898C179.519 155.796 179.623 155.715 179.741 155.66C179.858 155.605 179.987 155.578 180.116 155.58H185.481C185.607 155.578 185.733 155.605 185.849 155.658C185.964 155.712 186.067 155.791 186.149 155.889C186.231 155.988 186.291 156.104 186.325 156.229C186.359 156.354 186.365 156.485 186.343 156.613L183.885 170.8C183.848 171.006 183.742 171.191 183.584 171.324C183.426 171.456 183.227 171.527 183.023 171.524H183.014ZM181.177 157.345L182.902 166L184.403 157.345H181.177Z" fill="#093F68"/>
<path d="M181.315 110.935C181.974 110.829 182.64 110.776 183.307 110.776C186.395 110.776 189.534 110.697 192.346 112.108C195.185 113.55 197.575 115.771 199.251 118.523C200.926 121.274 201.82 124.448 201.834 127.69L201.187 140.607H164.28C164.209 139.801 164.259 138.989 164.427 138.199C164.405 137.354 164.283 136.516 164.065 135.702C163.628 133.594 163.38 131.45 163.323 129.296C163.331 125.906 164.021 122.555 165.35 119.449C166.1 117.579 166.98 115.646 168.593 114.482C170.206 113.317 172.767 113.273 173.915 114.923C175.877 112.786 178.482 111.382 181.315 110.935V110.935Z" fill="#725858"/>
<path d="M201.213 141.49H165.85C163.78 141.49 163.427 141.49 163.401 140.731C163.296 140.113 163.314 139.48 163.452 138.869C163.5 138.636 163.532 138.4 163.547 138.163C163.551 137.567 163.472 136.973 163.314 136.399C163.314 136.213 163.237 136.028 163.202 135.843C162.75 133.683 162.496 131.486 162.443 129.278C162.452 125.768 163.162 122.297 164.531 119.079C165.298 117.182 166.256 115.038 168.084 113.723C168.928 113.099 169.939 112.756 170.98 112.738C172.021 112.721 173.042 113.031 173.906 113.626C175.917 111.712 178.445 110.461 181.16 110.035V110.035C181.866 109.933 182.577 109.874 183.29 109.858H183.842C186.809 109.858 189.879 109.858 192.708 111.279C195.7 112.786 198.222 115.117 199.989 118.01C201.757 120.903 202.7 124.243 202.713 127.655C202.713 127.655 202.713 127.655 202.058 140.616C202.056 140.846 201.966 141.065 201.808 141.228C201.651 141.391 201.437 141.485 201.213 141.49ZM165.091 139.725H200.402C200.54 136.884 200.997 127.761 201.006 127.646C200.989 124.573 200.135 121.565 198.539 118.961C196.944 116.357 194.671 114.259 191.975 112.902C189.5 111.667 186.757 111.667 183.859 111.658H183.307C182.684 111.674 182.062 111.724 181.444 111.808V111.808C178.803 112.222 176.373 113.53 174.544 115.523C174.458 115.618 174.352 115.693 174.234 115.742C174.117 115.791 173.99 115.812 173.863 115.805C173.735 115.797 173.61 115.759 173.499 115.695C173.387 115.631 173.29 115.542 173.216 115.435C172.353 114.217 170.335 114.305 169.093 115.196C167.653 116.238 166.851 118.038 166.143 119.785C164.866 122.783 164.2 126.016 164.186 129.287C164.235 131.385 164.478 133.474 164.91 135.525C164.91 135.702 164.979 135.878 165.022 136.054C165.207 136.765 165.297 137.498 165.29 138.234C165.272 138.548 165.231 138.861 165.169 139.169C165.143 139.363 165.108 139.548 165.091 139.725Z" fill="#093F68"/>
<path d="M180.116 153.304H185.481V156.463C185.481 157.08 185.241 157.673 184.814 158.11C184.387 158.546 183.808 158.792 183.204 158.792H182.393C181.789 158.792 181.21 158.546 180.783 158.11C180.356 157.673 180.116 157.08 180.116 156.463V153.304V153.304Z" fill="#FFC9B0"/>
<path d="M183.204 159.674H182.393C181.561 159.672 180.764 159.333 180.175 158.731C179.587 158.129 179.256 157.314 179.253 156.463V153.304C179.253 153.07 179.344 152.846 179.506 152.68C179.668 152.515 179.887 152.422 180.116 152.422H185.481C185.709 152.422 185.929 152.515 186.091 152.68C186.252 152.846 186.343 153.07 186.343 153.304V156.463C186.341 157.314 186.009 158.129 185.421 158.731C184.833 159.333 184.036 159.672 183.204 159.674V159.674ZM180.978 154.186V156.463C180.978 156.846 181.127 157.214 181.393 157.486C181.658 157.757 182.018 157.91 182.393 157.91H183.204C183.578 157.907 183.937 157.754 184.201 157.483C184.466 157.212 184.616 156.846 184.618 156.463V154.186H180.978Z" fill="#093F68"/>
<path d="M168.351 143.642C171.062 143.642 173.259 141.584 173.259 139.046C173.259 136.507 171.062 134.449 168.351 134.449C165.641 134.449 163.444 136.507 163.444 139.046C163.444 141.584 165.641 143.642 168.351 143.642Z" fill="#FFC9B0"/>
<path d="M168.351 144.525C167.311 144.444 166.316 144.055 165.489 143.404C164.661 142.754 164.037 141.871 163.693 140.863C163.348 139.856 163.299 138.767 163.55 137.731C163.801 136.695 164.342 135.756 165.107 135.03C165.872 134.304 166.827 133.822 167.856 133.642C168.884 133.463 169.942 133.595 170.899 134.021C171.855 134.447 172.67 135.149 173.242 136.042C173.815 136.934 174.12 137.978 174.122 139.046C174.063 140.554 173.423 141.977 172.342 143.004C171.261 144.03 169.826 144.577 168.351 144.525ZM168.351 135.34C167.651 135.418 166.987 135.703 166.441 136.159C165.895 136.614 165.49 137.222 165.275 137.909C165.059 138.595 165.043 139.331 165.227 140.027C165.412 140.723 165.789 141.349 166.314 141.83C166.839 142.311 167.489 142.626 168.186 142.738C168.882 142.849 169.595 142.751 170.239 142.457C170.882 142.162 171.428 141.683 171.811 141.078C172.194 140.472 172.397 139.767 172.397 139.046C172.334 138.008 171.875 137.037 171.118 136.343C170.36 135.65 169.367 135.289 168.351 135.34V135.34Z" fill="#093F68"/>
<path d="M196.961 143.642C199.671 143.642 201.868 141.584 201.868 139.046C201.868 136.507 199.671 134.449 196.961 134.449C194.25 134.449 192.053 136.507 192.053 139.046C192.053 141.584 194.25 143.642 196.961 143.642Z" fill="#FFC9B0"/>
<path d="M196.961 144.525C195.92 144.444 194.925 144.055 194.098 143.404C193.27 142.754 192.646 141.871 192.302 140.863C191.957 139.856 191.908 138.767 192.159 137.731C192.41 136.695 192.951 135.756 193.716 135.03C194.481 134.304 195.436 133.822 196.465 133.642C197.494 133.463 198.551 133.595 199.508 134.021C200.465 134.447 201.279 135.149 201.851 136.042C202.424 136.934 202.729 137.978 202.731 139.046C202.672 140.554 202.033 141.977 200.951 143.004C199.87 144.03 198.435 144.577 196.961 144.525V144.525ZM196.961 135.34C196.26 135.418 195.597 135.703 195.05 136.159C194.504 136.614 194.099 137.222 193.884 137.909C193.668 138.595 193.652 139.331 193.836 140.027C194.021 140.723 194.398 141.349 194.923 141.83C195.449 142.311 196.099 142.626 196.795 142.738C197.491 142.849 198.204 142.751 198.848 142.457C199.491 142.162 200.037 141.683 200.42 141.078C200.803 140.472 201.007 139.767 201.006 139.046C200.946 138.007 200.487 137.035 199.729 136.341C198.971 135.647 197.976 135.287 196.961 135.34V135.34Z" fill="#093F68"/>
<path d="M182.798 154.019C178.63 154.019 174.632 152.325 171.683 149.311C168.735 146.296 167.077 142.207 167.075 137.943V129.287C167.075 129.287 171.034 126.975 172.207 123.34C172.207 123.34 178.244 130.399 184.075 129.887C188.921 129.471 193.74 128.784 198.513 127.831V137.943C198.513 142.206 196.857 146.295 193.91 149.31C190.963 152.325 186.966 154.019 182.798 154.019V154.019Z" fill="#FFC9B0"/>
<path d="M182.798 154.901C178.402 154.896 174.188 153.108 171.078 149.929C167.969 146.75 166.219 142.44 166.212 137.943V129.287C166.213 129.131 166.254 128.977 166.331 128.842C166.408 128.708 166.519 128.596 166.652 128.52C166.652 128.52 170.335 126.331 171.387 123.067C171.435 122.919 171.519 122.786 171.633 122.682C171.747 122.578 171.885 122.507 172.034 122.476C172.183 122.445 172.337 122.455 172.481 122.504C172.625 122.554 172.754 122.641 172.854 122.758C172.914 122.829 178.684 129.446 184.006 129.014C188.816 128.593 193.601 127.91 198.341 126.967C198.465 126.94 198.594 126.942 198.718 126.973C198.842 127.003 198.957 127.061 199.056 127.143C199.157 127.226 199.237 127.331 199.292 127.45C199.348 127.569 199.376 127.699 199.376 127.831V137.943C199.371 142.439 197.623 146.749 194.515 149.929C191.407 153.108 187.194 154.896 182.798 154.901V154.901ZM167.937 129.781V137.943C168.031 141.91 169.637 145.683 172.413 148.455C175.189 151.227 178.915 152.779 182.794 152.779C186.673 152.779 190.399 151.227 193.175 148.455C195.951 145.683 197.557 141.91 197.651 137.943V128.899C195.434 129.322 189.948 130.293 184.144 130.769C179.288 131.166 174.467 126.905 172.491 124.911C171.376 126.883 169.814 128.553 167.937 129.781Z" fill="#093F68"/>
<path d="M182.712 141.49C182.215 141.488 181.719 141.446 181.229 141.366C181.115 141.346 181.007 141.303 180.91 141.24C180.813 141.177 180.729 141.095 180.663 140.998C180.597 140.902 180.55 140.794 180.525 140.679C180.5 140.564 180.497 140.445 180.517 140.329C180.537 140.213 180.579 140.103 180.64 140.003C180.702 139.904 180.782 139.818 180.876 139.751C180.971 139.683 181.077 139.635 181.189 139.609C181.301 139.584 181.417 139.581 181.53 139.601C182.077 139.695 182.633 139.722 183.186 139.681C182.92 138.646 182.532 137.647 182.031 136.707C181.969 136.604 181.928 136.489 181.911 136.369C181.895 136.249 181.903 136.127 181.934 136.01C181.966 135.893 182.021 135.784 182.095 135.69C182.17 135.596 182.263 135.518 182.368 135.462C182.473 135.406 182.588 135.373 182.706 135.365C182.824 135.357 182.943 135.373 183.055 135.414C183.166 135.455 183.269 135.518 183.355 135.601C183.442 135.684 183.51 135.784 183.557 135.896C184.377 137.493 185.282 139.61 184.799 140.634C184.728 140.803 184.619 140.953 184.481 141.073C184.344 141.192 184.181 141.277 184.006 141.322C183.583 141.431 183.148 141.487 182.712 141.49V141.49Z" fill="#093F68"/>
<path d="M173.759 176.227C173.531 176.227 173.311 176.134 173.15 175.968C172.988 175.803 172.897 175.578 172.897 175.344V167.218C172.897 166.984 172.988 166.76 173.15 166.594C173.311 166.429 173.531 166.336 173.759 166.336C173.988 166.336 174.207 166.429 174.369 166.594C174.531 166.76 174.622 166.984 174.622 167.218V175.344C174.622 175.578 174.531 175.803 174.369 175.968C174.207 176.134 173.988 176.227 173.759 176.227Z" fill="#093F68"/>
<path d="M191.553 176.191C191.324 176.191 191.105 176.098 190.943 175.933C190.781 175.767 190.69 175.543 190.69 175.309V167.218C190.69 166.984 190.781 166.76 190.943 166.594C191.105 166.429 191.324 166.336 191.553 166.336C191.782 166.336 192.001 166.429 192.163 166.594C192.324 166.76 192.415 166.984 192.415 167.218V175.309C192.415 175.543 192.324 175.767 192.163 175.933C192.001 176.098 191.782 176.191 191.553 176.191Z" fill="#093F68"/>
<path d="M95.4099 63.4308C95.4127 70.6006 93.4249 77.6237 89.6778 83.6828C85.9308 89.7418 80.5785 94.5876 74.2441 97.656C69.2914 100.054 63.8795 101.296 58.4 101.291C51.0798 101.293 43.9234 99.0739 37.8361 94.9148C31.7487 90.7558 27.0037 84.8434 24.2012 77.9255C21.3987 71.0075 20.6645 63.3948 22.0916 56.05C23.5186 48.7053 27.0428 41.9584 32.2184 36.6626C37.394 31.3669 43.9885 27.7601 51.1679 26.2986C58.3474 24.837 65.7893 25.5863 72.5524 28.4516C79.3156 31.3169 85.0963 36.1695 89.1634 42.3958C93.2304 48.6221 95.4012 55.9424 95.4012 63.4308H95.4099Z" fill="#BBE06C"/>
<path d="M58.4 102.173C52.7034 102.183 47.0782 100.877 41.9435 98.353C34.2109 94.534 27.9769 88.1398 24.2642 80.2195C20.5515 72.2992 19.5806 63.3232 21.5109 54.7641C23.4411 46.2051 28.1579 38.5713 34.8873 33.1154C41.6166 27.6595 49.9589 24.7055 58.5454 24.7379C67.1319 24.7704 75.4526 27.7875 82.1424 33.2941C88.8321 38.8007 93.4936 46.4699 95.362 55.0433C97.2304 63.6167 96.1947 72.5852 92.4248 80.4772C88.655 88.3693 82.3749 94.7161 74.615 98.4765C69.5419 100.915 64.0051 102.177 58.4 102.173ZM58.4 26.4527C51.2479 26.4492 44.2555 28.6157 38.3072 32.6782C32.3589 36.7406 27.722 42.5165 24.9831 49.2751C22.2441 56.0338 21.5262 63.4716 22.92 70.6478C24.3138 77.8239 27.7569 84.416 32.8135 89.5901C37.8702 94.7642 44.3134 98.288 51.328 99.7155C58.3426 101.143 65.6135 100.41 72.221 97.6101C78.8285 94.8099 84.4757 90.0678 88.4483 83.9838C92.4209 77.8998 94.5404 70.7472 94.5387 63.4308C94.5182 53.6315 90.7045 44.2395 83.9318 37.3096C77.1592 30.3797 67.9791 26.476 58.4 26.4527V26.4527Z" fill="#093F68"/>
<path d="M52.0606 39.6169C52.0606 39.6169 48.4813 38.3375 45.0916 42.8285C41.9176 47.0284 42.0901 53.0458 41.9263 58.0574C41.7367 63.095 40.8271 68.077 39.2266 72.8451C37.7949 77.4155 39.8735 82.383 43.4184 85.1358C46.2553 87.1912 49.6135 88.3619 53.087 88.5063C55.9505 88.7445 58.7191 87.9592 61.5223 88.2857C64.4848 88.6997 67.5007 88.1995 70.1836 86.8492C72.8665 85.499 75.0943 83.3601 76.5815 80.7065C77.3656 79.4366 77.8554 78 78.0133 76.5067C78.0438 75.0343 77.8607 73.5655 77.4699 72.148C76.329 67.049 75.7189 61.8408 75.65 56.6104C75.7197 52.4188 74.7901 48.273 72.9418 44.5314C68.6293 36.37 57.0631 32.6289 52.0606 39.6169Z" fill="#725858"/>
<path d="M54.2255 89.4328C53.8288 89.4328 53.4234 89.4328 53.018 89.4328C48.8349 89.0887 45.5229 87.9328 42.8923 85.9035C38.804 82.7271 36.9583 77.2744 38.4073 72.6687C39.9868 67.9787 40.8819 63.0762 41.0638 58.1192C41.0638 57.6428 41.0638 57.1575 41.0638 56.6722C41.1845 51.8636 41.3225 46.402 44.3671 42.3698C47.2738 38.5229 50.4046 38.5141 51.6725 38.7258C52.7179 37.4602 54.051 36.4765 55.5549 35.8612C57.0587 35.2458 58.6873 35.0176 60.2975 35.1965C63.0705 35.4773 65.735 36.4441 68.0611 38.0136C70.3872 39.583 72.305 41.708 73.649 44.205C75.5682 48.04 76.5507 52.2935 76.5125 56.6016C76.5768 61.7599 77.1724 66.8969 78.2893 71.9275L78.3583 72.2363C78.7283 73.639 78.8939 75.0899 78.8499 76.5421C78.6842 78.1677 78.1528 79.732 77.2974 81.1125C75.7363 83.9243 73.3879 86.1934 70.5548 87.6276C67.7217 89.0617 64.5336 89.5952 61.4015 89.1592C60.0046 89.0469 58.6002 89.0794 57.2098 89.2563C56.2524 89.3445 55.2519 89.4328 54.2255 89.4328ZM50.7755 40.3228C49.6456 40.3228 47.6878 40.7728 45.7299 43.3668C43.0303 46.8961 42.9009 52.0841 42.7888 56.6016C42.7888 57.0957 42.7888 57.581 42.7888 58.0575C42.6015 63.1681 41.6772 68.2225 40.046 73.0569C38.8213 76.9832 40.4169 81.6419 43.9359 84.3771C46.6429 86.331 49.8454 87.4405 53.156 87.5711C54.4654 87.6408 55.7783 87.5965 57.0804 87.4387C58.5885 87.2513 60.1113 87.2188 61.6258 87.3417C64.425 87.7313 67.2742 87.2557 69.8072 85.9758C72.3401 84.696 74.441 82.6704 75.8398 80.1596C76.56 79.0064 77.0115 77.6992 77.1594 76.3391C77.1828 75.0611 77.0259 73.7862 76.6936 72.554L76.6333 72.2452C75.4806 67.1148 74.8619 61.874 74.7875 56.6105C74.865 52.565 73.9768 48.5612 72.2 44.9462C70.984 42.7188 69.2641 40.8219 67.1843 39.4142C65.1044 38.0066 62.7252 37.1291 60.2458 36.8553C58.8268 36.6863 57.3894 36.8985 56.075 37.4709C54.7607 38.0434 53.6149 38.9564 52.7506 40.1199C52.6426 40.2723 52.4897 40.3853 52.3143 40.4425C52.139 40.4996 51.9503 40.4979 51.776 40.4375C51.4648 40.3477 51.1417 40.309 50.8186 40.3228H50.7755Z" fill="#093F68"/>
<path d="M74.2441 90.9944V97.656C69.2914 100.054 63.8795 101.296 58.4 101.291C52.828 101.294 47.327 100.012 42.3057 97.5412V90.9944C42.3057 88.0623 43.4444 85.2503 45.4711 83.177C47.4978 81.1037 50.2466 79.939 53.1129 79.939H63.4629C64.8824 79.9378 66.2882 80.223 67.5999 80.7782C68.9116 81.3333 70.1034 82.1476 71.1072 83.1744C72.111 84.2013 72.9069 85.4205 73.4497 86.7623C73.9924 88.1042 74.2711 89.5423 74.27 90.9944H74.2441Z" fill="#FFBC0E"/>
<path d="M58.4 102.173C52.7034 102.183 47.0782 100.877 41.9435 98.353C41.7967 98.2815 41.6727 98.169 41.5857 98.0285C41.4987 97.888 41.4523 97.7253 41.4519 97.559V91.0121C41.4519 87.846 42.6813 84.8096 44.8698 82.5708C47.0583 80.3321 50.0265 79.0744 53.1215 79.0744H63.4715C65.0046 79.072 66.5231 79.3792 67.94 79.9783C69.3568 80.5774 70.6442 81.4567 71.7282 82.5657C72.8123 83.6747 73.6718 84.9916 74.2575 86.441C74.8431 87.8904 75.1434 89.4438 75.1411 91.0121V97.6737C75.1423 97.8415 75.0967 98.0061 75.0096 98.1483C74.9225 98.2906 74.7976 98.4044 74.6495 98.4766C69.5659 100.92 64.0168 102.183 58.4 102.173ZM43.1682 96.9766C45.1949 97.9418 47.3059 98.7099 49.4731 99.2707C55.2448 100.764 61.2866 100.786 67.0681 99.3324C69.2336 98.7886 71.3445 98.0383 73.373 97.0913V90.9945C73.3753 89.6579 73.1196 88.334 72.6206 87.0986C72.1217 85.8633 71.3893 84.7409 70.4654 83.7958C69.5415 82.8507 68.4443 82.1014 67.2367 81.591C66.0291 81.0806 64.735 80.819 63.4284 80.8213H53.0784C51.7718 80.819 50.4776 81.0806 49.27 81.591C48.0625 82.1014 46.9653 82.8507 46.0414 83.7958C45.1175 84.7409 44.3851 85.8633 43.8861 87.0986C43.3872 88.334 43.1315 89.6579 43.1338 90.9945L43.1682 96.9766Z" fill="#093F68"/>
<path d="M58.2792 95.8737L56.3472 80.8743H61.2894L58.2792 95.8737Z" fill="#093F68"/>
<path d="M58.2792 96.7561C58.0761 96.7474 57.8826 96.6656 57.7326 96.5252C57.5827 96.3847 57.4861 96.1946 57.4599 95.9884L55.5279 80.989C55.5118 80.8639 55.5222 80.7367 55.5583 80.616C55.5944 80.4954 55.6554 80.384 55.7371 80.2895C55.8189 80.195 55.9195 80.1196 56.0322 80.0682C56.1449 80.0169 56.267 79.9909 56.3904 79.992H61.3325C61.4592 79.9918 61.5844 80.0201 61.6992 80.075C61.814 80.1299 61.9155 80.21 61.9966 80.3096C62.0792 80.4114 62.1383 80.5308 62.1697 80.6591C62.201 80.7874 62.2038 80.9212 62.1778 81.0508L59.1676 96.0502C59.1266 96.2571 59.0144 96.4421 58.8514 96.5717C58.6884 96.7012 58.4854 96.7666 58.2792 96.7561V96.7561ZM57.3305 81.7566L58.4604 90.5798L60.2285 81.7566H57.3305Z" fill="#093F68"/>
<path d="M49.2748 101C49.046 101 48.8266 100.907 48.6649 100.742C48.5031 100.576 48.4122 100.352 48.4122 100.118V91.9121C48.4122 91.6781 48.5031 91.4537 48.6649 91.2882C48.8266 91.1227 49.046 91.0298 49.2748 91.0298C49.5035 91.0298 49.7229 91.1227 49.8846 91.2882C50.0464 91.4537 50.1373 91.6781 50.1373 91.9121V100.118C50.1373 100.352 50.0464 100.576 49.8846 100.742C49.7229 100.907 49.5035 101 49.2748 101Z" fill="#093F68"/>
<path d="M67.2924 101.071C67.0636 101.071 66.8442 100.978 66.6825 100.812C66.5208 100.647 66.4299 100.422 66.4299 100.188V91.9209C66.4299 91.6869 66.5208 91.4625 66.6825 91.297C66.8442 91.1315 67.0636 91.0386 67.2924 91.0386C67.5211 91.0386 67.7405 91.1315 67.9022 91.297C68.064 91.4625 68.1549 91.6869 68.1549 91.9209V100.188C68.1549 100.422 68.064 100.647 67.9022 100.812C67.7405 100.978 67.5211 101.071 67.2924 101.071Z" fill="#093F68"/>
<path d="M56.3472 78.3419H61.2894V81.2536C61.2894 81.5351 61.2352 81.8139 61.1298 82.0741C61.0245 82.3342 60.8701 82.5705 60.6755 82.7696C60.4809 82.9687 60.2498 83.1266 59.9955 83.2344C59.7413 83.3421 59.4687 83.3976 59.1935 83.3976H58.4C57.8441 83.3976 57.311 83.1717 56.918 82.7696C56.5249 82.3675 56.3041 81.8222 56.3041 81.2536V78.3419H56.3472Z" fill="#FFC9B0"/>
<path d="M59.1849 84.2801H58.4431C57.6592 84.2777 56.908 83.9581 56.3537 83.3911C55.7994 82.824 55.487 82.0556 55.4847 81.2537V78.342C55.4847 78.108 55.5756 77.8836 55.7374 77.7181C55.8991 77.5527 56.1185 77.4597 56.3472 77.4597H61.2894C61.5181 77.4597 61.7375 77.5527 61.8993 77.7181C62.061 77.8836 62.1519 78.108 62.1519 78.342V81.2537C62.1496 82.0571 61.836 82.8269 61.2798 83.3942C60.7236 83.9615 59.9703 84.2801 59.1849 84.2801ZM57.2097 79.2244V81.2537C57.2097 81.5883 57.3397 81.9092 57.571 82.1459C57.8023 82.3825 58.116 82.5154 58.4431 82.5154H59.1849C59.5128 82.5154 59.8274 82.3828 60.0601 82.1464C60.2927 81.91 60.4246 81.5891 60.4269 81.2537V79.2244H57.2097Z" fill="#093F68"/>
<path d="M44.6949 69.4482C47.3481 69.4482 49.499 67.552 49.499 65.213C49.499 62.874 47.3481 60.9779 44.6949 60.9779C42.0416 60.9779 39.8907 62.874 39.8907 65.213C39.8907 67.552 42.0416 69.4482 44.6949 69.4482Z" fill="#FFC9B0"/>
<path d="M44.6949 70.3305C41.5726 70.3305 39.0369 68.0364 39.0369 65.213C39.0369 62.3896 41.5726 60.1044 44.6949 60.1044C47.8171 60.1044 50.3615 62.3984 50.3615 65.213C50.3615 68.0276 47.8171 70.3305 44.6949 70.3305ZM44.6949 61.869C42.5214 61.869 40.7619 63.369 40.7619 65.213C40.7619 67.057 42.4869 68.5658 44.6949 68.5658C46.9029 68.5658 48.6365 67.057 48.6365 65.213C48.6365 63.369 46.8684 61.869 44.6949 61.869V61.869Z" fill="#093F68"/>
<path d="M72.683 69.4482C75.3362 69.4482 77.4871 67.552 77.4871 65.213C77.4871 62.874 75.3362 60.9779 72.683 60.9779C70.0298 60.9779 67.8789 62.874 67.8789 65.213C67.8789 67.552 70.0298 69.4482 72.683 69.4482Z" fill="#FFC9B0"/>
<path d="M72.683 70.3305C69.5608 70.3305 67.0164 68.0364 67.0164 65.213C67.0164 62.3896 69.5608 60.1044 72.683 60.1044C75.8053 60.1044 78.341 62.3984 78.341 65.213C78.341 68.0276 75.8053 70.3305 72.683 70.3305ZM72.683 61.869C70.5095 61.869 68.7414 63.369 68.7414 65.213C68.7414 67.057 70.4664 68.5658 72.683 68.5658C74.8996 68.5658 76.616 67.057 76.616 65.213C76.616 63.369 74.8479 61.869 72.683 61.869V61.869Z" fill="#093F68"/>
<path d="M67.6201 52.6665L62.9367 46.4902C62.9367 46.4902 61.8845 50.2842 61.2117 52.6665H53.8287L52.1037 47.1696L50.0596 52.6577H44.3326V64.2602C44.3326 68.1868 45.8574 71.9526 48.5716 74.7291C51.2858 77.5056 54.967 79.0655 58.8054 79.0655V79.0655C62.6446 79.0655 66.3267 77.5059 69.0422 74.7296C71.7577 71.9534 73.2845 68.1876 73.2867 64.2602V52.6841L67.6201 52.6665Z" fill="#FFC9B0"/>
<path d="M58.814 79.886C54.7482 79.8814 50.8503 78.2271 47.9754 75.2861C45.1005 72.3451 43.4833 68.3576 43.4788 64.1984V52.5958C43.4788 52.3618 43.5696 52.1374 43.7314 51.972C43.8931 51.8065 44.1125 51.7135 44.3413 51.7135H49.5162L51.3534 46.799C51.4193 46.623 51.5386 46.4732 51.6938 46.3715C51.8491 46.2699 52.032 46.2218 52.2159 46.2343C52.3933 46.2399 52.5647 46.3014 52.7067 46.4104C52.8487 46.5193 52.9544 46.6704 53.0094 46.8431L54.5619 51.7312H60.6597C61.3066 49.393 62.1864 46.2343 62.1864 46.2343C62.2296 46.0773 62.3146 45.9356 62.4318 45.825C62.5491 45.7144 62.694 45.6393 62.8505 45.6079C63.0097 45.5735 63.1752 45.5859 63.3278 45.6437C63.4804 45.7015 63.614 45.8022 63.713 45.9343L68.1376 51.7576H73.3902C73.619 51.7576 73.8384 51.8506 74.0001 52.0161C74.1619 52.1815 74.2527 52.406 74.2527 52.64V64.1542C74.255 66.226 73.8568 68.2778 73.081 70.1916C72.3052 72.1054 71.1672 73.8433 69.7323 75.3054C68.2974 76.7675 66.5941 77.9249 64.7203 78.7111C62.8465 79.4972 60.8392 79.8965 58.814 79.886V79.886ZM45.2038 53.4782V64.1984C45.2931 67.8315 46.7668 71.285 49.3103 73.8223C51.8537 76.3595 55.2657 77.7796 58.8183 77.7796C62.3709 77.7796 65.7829 76.3595 68.3264 73.8223C70.8698 71.285 72.3435 67.8315 72.4329 64.1984V53.5576H67.6201C67.4884 53.5573 67.3585 53.5261 67.2404 53.4664C67.1223 53.4068 67.0191 53.3202 66.9387 53.2135L63.299 48.4313L62.0656 52.8958C62.0118 53.085 61.8977 53.2504 61.7414 53.3655C61.5851 53.4807 61.3956 53.5389 61.2031 53.5311H53.8201C53.6397 53.5291 53.4645 53.4693 53.319 53.3601C53.1736 53.2509 53.0653 53.0978 53.0094 52.9223L52.0175 49.7989L50.8445 52.9488C50.7833 53.1162 50.6739 53.2608 50.5306 53.3632C50.3874 53.4656 50.2171 53.5211 50.0424 53.5223L45.2038 53.4782Z" fill="#093F68"/>
<path d="M58.745 67.5336C58.2827 67.5332 57.8213 67.4949 57.365 67.4189C57.2534 67.3986 57.1468 67.3561 57.0513 67.2937C56.9558 67.2313 56.8732 67.1503 56.8084 67.0552C56.7435 66.9602 56.6976 66.853 56.6732 66.7397C56.6488 66.6265 56.6465 66.5095 56.6664 66.3954C56.6862 66.2812 56.7277 66.1722 56.7887 66.0745C56.8497 65.9768 56.929 65.8923 57.0219 65.8259C57.1148 65.7596 57.2196 65.7126 57.3302 65.6876C57.4409 65.6627 57.5553 65.6604 57.6669 65.6807C58.1398 65.7614 58.62 65.788 59.0986 65.7601C58.8418 64.843 58.492 63.9559 58.055 63.1131C57.9487 62.906 57.9272 62.6642 57.9951 62.4409C58.063 62.2175 58.2149 62.0309 58.4173 61.922C58.518 61.8685 58.6281 61.8359 58.7412 61.826C58.8544 61.8161 58.9683 61.8291 59.0765 61.8644C59.1846 61.8996 59.2849 61.9564 59.3716 62.0314C59.4583 62.1064 59.5297 62.1981 59.5816 62.3014C60.3406 63.7837 61.1514 65.7601 60.7288 66.713C60.657 66.8789 60.5489 67.0256 60.4128 67.1419C60.2767 67.2582 60.1162 67.3409 59.9439 67.3836C59.5513 67.4813 59.149 67.5316 58.745 67.5336V67.5336Z" fill="#093F68"/>
<path d="M182.798 90.5798C182.226 90.5798 181.678 90.3474 181.274 89.9337C180.869 89.5201 180.642 88.959 180.642 88.374V74.398C180.635 68.944 178.514 63.7155 174.743 59.8597C170.972 56.0039 165.86 53.8358 160.529 53.8312H101.016C100.444 53.8312 99.8958 53.5988 99.4914 53.1851C99.087 52.7714 98.8599 52.2104 98.8599 51.6254C98.8599 51.0403 99.087 50.4793 99.4914 50.0656C99.8958 49.652 100.444 49.4196 101.016 49.4196H160.529C167.003 49.4266 173.211 52.0602 177.79 56.7428C182.369 61.4254 184.945 67.7747 184.955 74.398V88.374C184.955 88.959 184.727 89.5201 184.323 89.9337C183.919 90.3474 183.37 90.5798 182.798 90.5798Z" fill="#093F68"/>
<path d="M174.941 84.774H190.725L182.79 93.7296L174.941 84.774Z" fill="#093F68"/>
<path d="M182.79 94.6119C182.667 94.6198 182.545 94.5965 182.434 94.5441C182.322 94.4918 182.225 94.412 182.151 94.3119L174.294 85.3652C174.182 85.2381 174.108 85.0804 174.082 84.9112C174.056 84.742 174.079 84.5688 174.148 84.4126C174.216 84.2564 174.328 84.1239 174.469 84.0315C174.609 83.939 174.774 83.8904 174.941 83.8917H190.725C190.891 83.8922 191.054 83.9419 191.194 84.0351C191.334 84.1282 191.444 84.2608 191.511 84.4166C191.579 84.5725 191.601 84.745 191.574 84.9134C191.548 85.0817 191.475 85.2387 191.363 85.3652L183.462 94.3208C183.378 94.4167 183.274 94.4925 183.158 94.5428C183.041 94.5931 182.916 94.6167 182.79 94.6119ZM176.873 85.6564L182.798 92.4061L188.775 85.6564H176.873Z" fill="#093F68"/>
<path d="M139.009 153.304H79.4967C73.0215 153.306 66.8098 150.68 62.2255 146.002C57.6411 141.324 55.0586 134.976 55.0449 128.352V114.349C55.0449 113.764 55.272 113.203 55.6764 112.79C56.0808 112.376 56.6292 112.144 57.2011 112.144C57.773 112.144 58.3214 112.376 58.7258 112.79C59.1302 113.203 59.3574 113.764 59.3574 114.349V128.352C59.3642 133.806 61.4858 139.034 65.2566 142.89C69.0273 146.746 74.1393 148.914 79.4709 148.919H138.983C139.555 148.919 140.104 149.151 140.508 149.565C140.912 149.979 141.14 150.54 141.14 151.125C141.14 151.71 140.912 152.271 140.508 152.684C140.104 153.098 139.555 153.33 138.983 153.33L139.009 153.304Z" fill="#093F68"/>
<path d="M65.0585 117.949H49.2747L57.2011 108.994L65.0585 117.949Z" fill="#093F68"/>
<path d="M65.0585 118.832H49.2747C49.1079 118.831 48.9449 118.78 48.8056 118.686C48.6663 118.592 48.5566 118.459 48.4899 118.302C48.4231 118.147 48.4014 117.976 48.4274 117.808C48.4534 117.641 48.526 117.485 48.6365 117.358L56.5629 108.403C56.6445 108.31 56.7443 108.236 56.8558 108.186C56.9673 108.136 57.0879 108.111 57.2097 108.111C57.3301 108.112 57.4491 108.138 57.559 108.188C57.6689 108.238 57.7674 108.311 57.848 108.403L65.6968 117.358C65.8073 117.485 65.8799 117.641 65.9059 117.808C65.9319 117.976 65.9102 118.147 65.8434 118.302C65.7766 118.459 65.667 118.592 65.5276 118.686C65.3883 118.78 65.2254 118.831 65.0585 118.832ZM51.2585 117.067H63.161L57.2356 110.317L51.2585 117.067Z" fill="#093F68"/>
<path d="M124.148 115.673C132.356 115.673 139.009 108.867 139.009 100.471C139.009 92.0745 132.356 85.2682 124.148 85.2682C115.941 85.2682 109.287 92.0745 109.287 100.471C109.287 108.867 115.941 115.673 124.148 115.673Z" fill="white"/>
<path d="M124.148 116.546C121.038 116.546 117.998 115.603 115.412 113.835C112.826 112.067 110.811 109.555 109.621 106.615C108.431 103.675 108.12 100.441 108.728 97.3206C109.335 94.2002 110.834 91.3342 113.033 89.0851C115.233 86.8359 118.036 85.3047 121.086 84.6851C124.137 84.0654 127.299 84.3852 130.171 85.604C133.044 86.8228 135.499 88.8857 137.226 91.532C138.953 94.1783 139.873 97.289 139.872 100.471C139.867 104.734 138.209 108.822 135.261 111.836C132.313 114.85 128.316 116.544 124.148 116.546V116.546ZM124.148 86.1505C121.38 86.1505 118.673 86.9904 116.371 88.5639C114.069 90.1374 112.275 92.3739 111.216 94.9905C110.156 97.6072 109.879 100.486 110.419 103.264C110.959 106.042 112.292 108.594 114.25 110.596C116.208 112.599 118.702 113.963 121.417 114.516C124.133 115.068 126.947 114.784 129.505 113.701C132.063 112.617 134.249 110.781 135.788 108.426C137.326 106.071 138.147 103.303 138.147 100.471C138.142 96.6741 136.666 93.0345 134.042 90.35C131.417 87.6654 127.86 86.1552 124.148 86.1505V86.1505Z" fill="#093F68"/>
<path d="M124.951 107.9C124.722 107.9 124.502 107.807 124.341 107.641C124.179 107.476 124.088 107.251 124.088 107.017V98.0882H121.673C121.444 98.0882 121.225 97.9953 121.063 97.8298C120.901 97.6644 120.811 97.4399 120.811 97.2059C120.811 96.9719 120.901 96.7475 121.063 96.582C121.225 96.4166 121.444 96.3236 121.673 96.3236H124.951C125.179 96.3236 125.399 96.4166 125.56 96.582C125.722 96.7475 125.813 96.9719 125.813 97.2059V107.017C125.813 107.251 125.722 107.476 125.56 107.641C125.399 107.807 125.179 107.9 124.951 107.9Z" fill="#093F68"/>
<path d="M128.349 108.403H121.673C121.444 108.403 121.225 108.31 121.063 108.144C120.901 107.979 120.811 107.754 120.811 107.52C120.811 107.286 120.901 107.062 121.063 106.896C121.225 106.731 121.444 106.638 121.673 106.638H128.349C128.578 106.638 128.797 106.731 128.959 106.896C129.12 107.062 129.211 107.286 129.211 107.52C129.211 107.754 129.12 107.979 128.959 108.144C128.797 108.31 128.578 108.403 128.349 108.403Z" fill="#093F68"/>
<path d="M124.433 95.4148C125.448 95.4148 126.27 94.5734 126.27 93.5355C126.27 92.4975 125.448 91.6561 124.433 91.6561C123.418 91.6561 122.596 92.4975 122.596 93.5355C122.596 94.5734 123.418 95.4148 124.433 95.4148Z" fill="#093F68"/>
</svg>
