<svg width="22" height="22" viewBox="0 0 22 22" fill="none" xmlns="http://www.w3.org/2000/svg">
<path fill-rule="evenodd" clip-rule="evenodd" d="M6.87774 6.68227C6.87774 8.63783 5.33886 10.2229 3.43887 10.2229C1.53999 10.2229 0 8.63783 0 6.68227C0 4.72785 1.53999 3.14282 3.43887 3.14282C5.33886 3.14282 6.87774 4.72785 6.87774 6.68227ZM18.4933 5.13154C19.3244 5.13154 20 5.82685 20 6.68227C20 7.53882 19.3244 8.23413 18.4933 8.23413H11.9178C11.0856 8.23413 10.4101 7.53882 10.4101 6.68227C10.4101 5.82685 11.0856 5.13154 11.9178 5.13154H18.4933ZM1.50777 16.7178H8.08329C8.91551 16.7178 9.59106 17.4131 9.59106 18.2697C9.59106 19.1251 8.91551 19.8216 8.08329 19.8216H1.50777C0.675552 19.8216 0 19.1251 0 18.2697C0 17.4131 0.675552 16.7178 1.50777 16.7178ZM16.5611 21.7672C18.4611 21.7672 20 20.1821 20 18.2277C20 16.2722 18.4611 14.6871 16.5611 14.6871C14.6623 14.6871 13.1223 16.2722 13.1223 18.2277C13.1223 20.1821 14.6623 21.7672 16.5611 21.7672Z" fill="#2E3E5C"/>
<circle cx="18" cy="4" r="3.5" fill="#1FCC79" stroke="white"/>
</svg>
