<svg width="32" height="32" viewBox="0 0 32 32" fill="none" xmlns="http://www.w3.org/2000/svg">
<path fill-rule="evenodd" clip-rule="evenodd" d="M2.09544 27.7092C1.63423 29.0588 2.92232 30.3524 4.28923 29.9125L23.8402 23.6196C24.1461 23.5212 24.3135 23.1955 24.2143 22.8922C24.115 22.589 23.7865 22.4229 23.4806 22.5214L3.92967 28.8142C3.47403 28.9608 3.04467 28.5296 3.1984 28.0798L10.2928 7.31999C10.4313 6.91468 10.9509 6.79442 11.256 7.09702L25.5769 21.2965C26.2591 21.9729 27.3651 21.9729 28.0473 21.2965L29.4884 19.8677C30.1705 19.1913 30.1705 18.0946 29.4884 17.4182L14.2974 2.35594C13.8187 1.88135 13.0427 1.88135 12.5641 2.35594L10.9603 3.94609C10.7329 4.17156 10.7329 4.53712 10.9603 4.76258C11.1877 4.98805 11.5564 4.98805 11.7838 4.76258L13.3875 3.17243C13.4114 3.14878 13.4501 3.14878 13.4739 3.17243L28.6649 18.2347C28.8923 18.4601 28.8923 18.8257 28.6649 19.0512L27.2238 20.48C26.9964 20.7055 26.6277 20.7055 26.4004 20.48L12.0795 6.28053C11.164 5.37273 9.60539 5.73351 9.18987 6.94942L2.09544 27.7092ZM8.90165 21.5006C9.35644 21.0497 10.0938 21.0497 10.5486 21.5006C11.0034 21.9516 11.0034 22.6827 10.5486 23.1336C10.0938 23.5845 9.35644 23.5845 8.90165 23.1336C8.44686 22.6827 8.44686 21.9516 8.90165 21.5006ZM16.3129 19.0512C16.7677 18.6002 17.505 18.6002 17.9598 19.0512C18.4146 19.5021 18.4146 20.2332 17.9598 20.6841C17.505 21.1351 16.7677 21.1351 16.3129 20.6841C15.8581 20.2332 15.8581 19.5021 16.3129 19.0512ZM11.3721 14.1522C11.8268 13.7013 12.5642 13.7013 13.019 14.1522C13.4738 14.6032 13.4738 15.3343 13.019 15.7852C12.5642 16.2361 11.8268 16.2361 11.3721 15.7852C10.9173 15.3343 10.9173 14.6032 11.3721 14.1522ZM10.5486 13.3357C11.4582 12.4339 12.9329 12.4339 13.8425 13.3357C14.752 14.2376 14.752 15.6998 13.8425 16.6017C12.9329 17.5036 11.4582 17.5036 10.5486 16.6017C9.63901 15.6998 9.63901 14.2376 10.5486 13.3357ZM18.7833 18.2347C17.8737 17.3328 16.399 17.3328 15.4894 18.2347C14.5798 19.1365 14.5798 20.5988 15.4894 21.5006C16.399 22.4025 17.8737 22.4025 18.7833 21.5006C19.6929 20.5988 19.6929 19.1365 18.7833 18.2347ZM11.3721 20.6841C10.4625 19.7823 8.98776 19.7823 8.07819 20.6841C7.16861 21.586 7.16861 23.0482 8.07819 23.9501C8.98776 24.852 10.4625 24.852 11.3721 23.9501C12.2816 23.0482 12.2816 21.586 11.3721 20.6841Z" fill="url(#paint0_linear_222_185)"/>
<defs>
<linearGradient id="paint0_linear_222_185" x1="2" y1="30" x2="30" y2="30" gradientUnits="userSpaceOnUse">
<stop stop-color="#7CB855"/>
<stop offset="1" stop-color="#BBE06C"/>
</linearGradient>
</defs>
</svg>
