<svg width="32" height="32" viewBox="0 0 32 32" fill="none" xmlns="http://www.w3.org/2000/svg">
<mask id="path-1-inside-1_222_161" fill="white">
<path d="M11.5608 5.17039C11.3231 4.92988 11.3231 4.53994 11.5608 4.29943L12.4217 3.42846C12.6594 3.18795 13.0448 3.18795 13.2825 3.42846C13.5202 3.66897 13.5202 4.05892 13.2825 4.29943L12.4217 5.17039C12.184 5.4109 11.7986 5.4109 11.5608 5.17039Z"/>
<path d="M8.39562 7.14991C8.15791 7.39042 8.15791 7.78036 8.39562 8.02087C8.63333 8.26138 9.01874 8.26138 9.25645 8.02087L10.1173 7.14991C10.355 6.9094 10.355 6.51945 10.1173 6.27894C9.87956 6.03843 9.49416 6.03843 9.25645 6.27894L8.39562 7.14991Z"/>
<path d="M12.0478 8.38164C11.8101 8.62215 11.8101 9.01209 12.0478 9.2526C12.2855 9.49311 12.6709 9.49311 12.9086 9.2526L13.7694 8.38164C14.0072 8.14113 14.0072 7.75118 13.7694 7.51067C13.5317 7.27016 13.1463 7.27016 12.9086 7.51067L12.0478 8.38164Z"/>
<path d="M15.7 4.68645C15.4623 4.92696 15.4623 5.3169 15.7 5.55741C15.9377 5.79792 16.3231 5.79792 16.5608 5.55741L17.4216 4.68645C17.6593 4.44594 17.6593 4.05599 17.4216 3.81548C17.1839 3.57497 16.7985 3.57497 16.5608 3.81548L15.7 4.68645Z"/>
<path d="M19.3521 6.78914C19.1144 6.54863 19.1144 6.15869 19.3521 5.91818L20.213 5.04721C20.4507 4.8067 20.8361 4.8067 21.0738 5.04721C21.3115 5.28772 21.3115 5.67767 21.0738 5.91818L20.213 6.78914C19.9753 7.02965 19.5899 7.02965 19.3521 6.78914Z"/>
<path d="M21.7869 8.38164C21.5492 8.62215 21.5492 9.01209 21.7869 9.2526C22.0246 9.49311 22.41 9.49311 22.6477 9.2526L23.5086 8.38164C23.7463 8.14113 23.7463 7.75118 23.5086 7.51067C23.2709 7.27016 22.8855 7.27016 22.6477 7.51067L21.7869 8.38164Z"/>
<path d="M16.4304 9.62213C16.1927 9.38162 16.1927 8.99168 16.4304 8.75117L17.2912 7.8802C17.5289 7.63969 17.9143 7.63969 18.1521 7.8802C18.3898 8.12071 18.3898 8.51066 18.1521 8.75117L17.2912 9.62213C17.0535 9.86264 16.6681 9.86264 16.4304 9.62213Z"/>
<path fill-rule="evenodd" clip-rule="evenodd" d="M4.69335 11.8532C3.34894 11.8249 2.25205 10.6793 2.63973 9.37656C2.82221 8.76333 3.06915 8.163 3.37872 7.58239C4.08806 6.25202 5.11239 5.0512 6.39322 4.04848C7.67405 3.04575 9.18631 2.26076 10.8436 1.73833C12.501 1.2159 14.2709 0.96626 16.0525 1.00366C17.834 1.04106 19.5922 1.36477 21.2267 1.9563C22.8612 2.54784 24.34 3.39561 25.5786 4.45123C26.8172 5.50684 27.7914 6.74962 28.4456 8.1086C28.5495 8.3244 28.645 8.54246 28.732 8.76244C29.4815 10.6571 27.7565 12.3373 25.7399 12.295L4.69335 11.8532ZM3.80543 9.73166C3.96369 9.19982 4.17868 8.67633 4.45015 8.1672C5.07215 7.00062 5.98044 5.92902 7.13821 5.02264C8.29631 4.116 9.6769 3.39624 11.2058 2.91431C12.7345 2.43243 14.3734 2.20041 16.0272 2.23512C17.681 2.26984 19.3091 2.57045 20.8167 3.11607C22.3245 3.66175 23.6744 4.43883 24.7943 5.39329C25.9139 6.34748 26.7775 7.45627 27.3511 8.64795C27.4422 8.83722 27.5258 9.02804 27.6018 9.22013C27.7842 9.68128 27.6843 10.0819 27.3753 10.4233C27.0373 10.7968 26.4462 11.0778 25.7652 11.0635L4.7186 10.6217C4.3739 10.6145 4.09067 10.4628 3.93091 10.2791C3.78758 10.1143 3.74432 9.93701 3.80543 9.73166Z"/>
<path d="M4.43478 24.0731C3.09009 24.0731 2 25.176 2 26.5365C2 27.8971 3.09009 29 4.43478 29H22.0869C22.4231 29 22.6956 28.7243 22.6956 28.3841C22.6956 28.044 22.4231 27.7683 22.0869 27.7683H4.43478C3.76244 27.7683 3.21739 27.2168 3.21739 26.5365C3.21739 25.8563 3.76244 25.3048 4.43478 25.3048H27.5652C28.2376 25.3048 28.7826 25.8563 28.7826 26.5365C28.7826 27.2168 28.2376 27.7683 27.5652 27.7683H25.1304C24.7943 27.7683 24.5217 28.044 24.5217 28.3841C24.5217 28.7243 24.7943 29 25.1304 29H27.5652C28.9099 29 30 27.8971 30 26.5365C30 25.176 28.9099 24.0731 27.5652 24.0731H4.43478Z"/>
<path d="M3.01815 13.7635C3.3924 14.1078 3.69932 14.2192 3.94783 14.2192C4.19634 14.2192 4.50326 14.1078 4.87751 13.7635C5.39601 13.2866 5.98184 12.9875 6.62609 12.9875C7.27034 12.9875 7.85617 13.2866 8.37467 13.7635C8.74892 14.1078 9.05584 14.2192 9.30435 14.2192C9.55286 14.2192 9.85978 14.1078 10.234 13.7635C10.7525 13.2866 11.3384 12.9875 11.9826 12.9875C12.6269 12.9875 13.2127 13.2866 13.7312 13.7635C14.1054 14.1078 14.4124 14.2192 14.6609 14.2192C14.9094 14.2192 15.2163 14.1078 15.5905 13.7635C16.1091 13.2866 16.6949 12.9875 17.3391 12.9875C17.9834 12.9875 18.5692 13.2866 19.0877 13.7635C19.462 14.1078 19.7689 14.2192 20.0174 14.2192C20.2659 14.2192 20.5728 14.1078 20.9471 13.7635C21.4656 13.2866 22.0514 12.9875 22.6956 12.9875C23.3399 12.9875 23.9257 13.2866 24.4442 13.7635C24.8185 14.1078 25.1254 14.2192 25.3739 14.2192C25.6224 14.2192 25.9293 14.1078 26.3036 13.7635C26.8221 13.2866 27.4079 12.9875 28.0522 12.9875C28.6964 12.9875 29.2822 13.2866 29.8008 13.7635C30.0495 13.9923 30.0678 14.3818 29.8417 14.6335C29.6156 14.8852 29.2306 14.9037 28.9818 14.6749C28.6076 14.3307 28.3007 14.2192 28.0522 14.2192C27.8037 14.2192 27.4967 14.3307 27.1225 14.6749C26.604 15.1519 26.0182 15.451 25.3739 15.451C24.7297 15.451 24.1438 15.1519 23.6253 14.6749C23.2511 14.3307 22.9442 14.2192 22.6956 14.2192C22.4471 14.2192 22.1402 14.3307 21.766 14.6749C21.2475 15.1519 20.6616 15.451 20.0174 15.451C19.3731 15.451 18.7873 15.1519 18.2688 14.6749C17.8946 14.3307 17.5876 14.2192 17.3391 14.2192C17.0906 14.2192 16.7837 14.3307 16.4095 14.6749C15.8909 15.1519 15.3051 15.451 14.6609 15.451C14.0166 15.451 13.4308 15.1519 12.9123 14.6749C12.538 14.3307 12.2311 14.2192 11.9826 14.2192C11.7341 14.2192 11.4272 14.3307 11.0529 14.6749C10.5344 15.1519 9.9486 15.451 9.30435 15.451C8.6601 15.451 8.07427 15.1519 7.55577 14.6749C7.18152 14.3307 6.8746 14.2192 6.62609 14.2192C6.37758 14.2192 6.07066 14.3307 5.69641 14.6749C5.17791 15.1519 4.59208 15.451 3.94783 15.451C3.30358 15.451 2.71775 15.1519 2.19925 14.6749C1.9505 14.4461 1.93217 14.0566 2.1583 13.805C2.38444 13.5533 2.7694 13.5347 3.01815 13.7635Z"/>
<path d="M4.43479 18.5303C4.43479 18.1902 4.70731 17.9144 5.04348 17.9144H28.1739C28.5101 17.9144 28.7826 17.6387 28.7826 17.2986C28.7826 16.9584 28.5101 16.6827 28.1739 16.6827H5.04348C4.03496 16.6827 3.2174 17.5099 3.2174 18.5303C3.2174 19.5507 4.03496 20.3779 5.04348 20.3779H26.9565C27.2927 20.3779 27.5652 20.6536 27.5652 20.9938C27.5652 21.3339 27.2927 21.6096 26.9565 21.6096H3.82609C3.48992 21.6096 3.2174 21.8853 3.2174 22.2255C3.2174 22.5656 3.48992 22.8413 3.82609 22.8413H26.9565C27.965 22.8413 28.7826 22.0141 28.7826 20.9938C28.7826 19.9734 27.965 19.1462 26.9565 19.1462H5.04348C4.70731 19.1462 4.43479 18.8704 4.43479 18.5303Z"/>
</mask>
<path d="M11.5608 5.17039C11.3231 4.92988 11.3231 4.53994 11.5608 4.29943L12.4217 3.42846C12.6594 3.18795 13.0448 3.18795 13.2825 3.42846C13.5202 3.66897 13.5202 4.05892 13.2825 4.29943L12.4217 5.17039C12.184 5.4109 11.7986 5.4109 11.5608 5.17039Z" fill="url(#paint0_linear_222_161)"/>
<path d="M8.39562 7.14991C8.15791 7.39042 8.15791 7.78036 8.39562 8.02087C8.63333 8.26138 9.01874 8.26138 9.25645 8.02087L10.1173 7.14991C10.355 6.9094 10.355 6.51945 10.1173 6.27894C9.87956 6.03843 9.49416 6.03843 9.25645 6.27894L8.39562 7.14991Z" fill="url(#paint1_linear_222_161)"/>
<path d="M12.0478 8.38164C11.8101 8.62215 11.8101 9.01209 12.0478 9.2526C12.2855 9.49311 12.6709 9.49311 12.9086 9.2526L13.7694 8.38164C14.0072 8.14113 14.0072 7.75118 13.7694 7.51067C13.5317 7.27016 13.1463 7.27016 12.9086 7.51067L12.0478 8.38164Z" fill="url(#paint2_linear_222_161)"/>
<path d="M15.7 4.68645C15.4623 4.92696 15.4623 5.3169 15.7 5.55741C15.9377 5.79792 16.3231 5.79792 16.5608 5.55741L17.4216 4.68645C17.6593 4.44594 17.6593 4.05599 17.4216 3.81548C17.1839 3.57497 16.7985 3.57497 16.5608 3.81548L15.7 4.68645Z" fill="url(#paint3_linear_222_161)"/>
<path d="M19.3521 6.78914C19.1144 6.54863 19.1144 6.15869 19.3521 5.91818L20.213 5.04721C20.4507 4.8067 20.8361 4.8067 21.0738 5.04721C21.3115 5.28772 21.3115 5.67767 21.0738 5.91818L20.213 6.78914C19.9753 7.02965 19.5899 7.02965 19.3521 6.78914Z" fill="url(#paint4_linear_222_161)"/>
<path d="M21.7869 8.38164C21.5492 8.62215 21.5492 9.01209 21.7869 9.2526C22.0246 9.49311 22.41 9.49311 22.6477 9.2526L23.5086 8.38164C23.7463 8.14113 23.7463 7.75118 23.5086 7.51067C23.2709 7.27016 22.8855 7.27016 22.6477 7.51067L21.7869 8.38164Z" fill="url(#paint5_linear_222_161)"/>
<path d="M16.4304 9.62213C16.1927 9.38162 16.1927 8.99168 16.4304 8.75117L17.2912 7.8802C17.5289 7.63969 17.9143 7.63969 18.1521 7.8802C18.3898 8.12071 18.3898 8.51066 18.1521 8.75117L17.2912 9.62213C17.0535 9.86264 16.6681 9.86264 16.4304 9.62213Z" fill="url(#paint6_linear_222_161)"/>
<path fill-rule="evenodd" clip-rule="evenodd" d="M4.69335 11.8532C3.34894 11.8249 2.25205 10.6793 2.63973 9.37656C2.82221 8.76333 3.06915 8.163 3.37872 7.58239C4.08806 6.25202 5.11239 5.0512 6.39322 4.04848C7.67405 3.04575 9.18631 2.26076 10.8436 1.73833C12.501 1.2159 14.2709 0.96626 16.0525 1.00366C17.834 1.04106 19.5922 1.36477 21.2267 1.9563C22.8612 2.54784 24.34 3.39561 25.5786 4.45123C26.8172 5.50684 27.7914 6.74962 28.4456 8.1086C28.5495 8.3244 28.645 8.54246 28.732 8.76244C29.4815 10.6571 27.7565 12.3373 25.7399 12.295L4.69335 11.8532ZM3.80543 9.73166C3.96369 9.19982 4.17868 8.67633 4.45015 8.1672C5.07215 7.00062 5.98044 5.92902 7.13821 5.02264C8.29631 4.116 9.6769 3.39624 11.2058 2.91431C12.7345 2.43243 14.3734 2.20041 16.0272 2.23512C17.681 2.26984 19.3091 2.57045 20.8167 3.11607C22.3245 3.66175 23.6744 4.43883 24.7943 5.39329C25.9139 6.34748 26.7775 7.45627 27.3511 8.64795C27.4422 8.83722 27.5258 9.02804 27.6018 9.22013C27.7842 9.68128 27.6843 10.0819 27.3753 10.4233C27.0373 10.7968 26.4462 11.0778 25.7652 11.0635L4.7186 10.6217C4.3739 10.6145 4.09067 10.4628 3.93091 10.2791C3.78758 10.1143 3.74432 9.93701 3.80543 9.73166Z" fill="url(#paint7_linear_222_161)"/>
<path d="M4.43478 24.0731C3.09009 24.0731 2 25.176 2 26.5365C2 27.8971 3.09009 29 4.43478 29H22.0869C22.4231 29 22.6956 28.7243 22.6956 28.3841C22.6956 28.044 22.4231 27.7683 22.0869 27.7683H4.43478C3.76244 27.7683 3.21739 27.2168 3.21739 26.5365C3.21739 25.8563 3.76244 25.3048 4.43478 25.3048H27.5652C28.2376 25.3048 28.7826 25.8563 28.7826 26.5365C28.7826 27.2168 28.2376 27.7683 27.5652 27.7683H25.1304C24.7943 27.7683 24.5217 28.044 24.5217 28.3841C24.5217 28.7243 24.7943 29 25.1304 29H27.5652C28.9099 29 30 27.8971 30 26.5365C30 25.176 28.9099 24.0731 27.5652 24.0731H4.43478Z" fill="url(#paint8_linear_222_161)"/>
<path d="M3.01815 13.7635C3.3924 14.1078 3.69932 14.2192 3.94783 14.2192C4.19634 14.2192 4.50326 14.1078 4.87751 13.7635C5.39601 13.2866 5.98184 12.9875 6.62609 12.9875C7.27034 12.9875 7.85617 13.2866 8.37467 13.7635C8.74892 14.1078 9.05584 14.2192 9.30435 14.2192C9.55286 14.2192 9.85978 14.1078 10.234 13.7635C10.7525 13.2866 11.3384 12.9875 11.9826 12.9875C12.6269 12.9875 13.2127 13.2866 13.7312 13.7635C14.1054 14.1078 14.4124 14.2192 14.6609 14.2192C14.9094 14.2192 15.2163 14.1078 15.5905 13.7635C16.1091 13.2866 16.6949 12.9875 17.3391 12.9875C17.9834 12.9875 18.5692 13.2866 19.0877 13.7635C19.462 14.1078 19.7689 14.2192 20.0174 14.2192C20.2659 14.2192 20.5728 14.1078 20.9471 13.7635C21.4656 13.2866 22.0514 12.9875 22.6956 12.9875C23.3399 12.9875 23.9257 13.2866 24.4442 13.7635C24.8185 14.1078 25.1254 14.2192 25.3739 14.2192C25.6224 14.2192 25.9293 14.1078 26.3036 13.7635C26.8221 13.2866 27.4079 12.9875 28.0522 12.9875C28.6964 12.9875 29.2822 13.2866 29.8008 13.7635C30.0495 13.9923 30.0678 14.3818 29.8417 14.6335C29.6156 14.8852 29.2306 14.9037 28.9818 14.6749C28.6076 14.3307 28.3007 14.2192 28.0522 14.2192C27.8037 14.2192 27.4967 14.3307 27.1225 14.6749C26.604 15.1519 26.0182 15.451 25.3739 15.451C24.7297 15.451 24.1438 15.1519 23.6253 14.6749C23.2511 14.3307 22.9442 14.2192 22.6956 14.2192C22.4471 14.2192 22.1402 14.3307 21.766 14.6749C21.2475 15.1519 20.6616 15.451 20.0174 15.451C19.3731 15.451 18.7873 15.1519 18.2688 14.6749C17.8946 14.3307 17.5876 14.2192 17.3391 14.2192C17.0906 14.2192 16.7837 14.3307 16.4095 14.6749C15.8909 15.1519 15.3051 15.451 14.6609 15.451C14.0166 15.451 13.4308 15.1519 12.9123 14.6749C12.538 14.3307 12.2311 14.2192 11.9826 14.2192C11.7341 14.2192 11.4272 14.3307 11.0529 14.6749C10.5344 15.1519 9.9486 15.451 9.30435 15.451C8.6601 15.451 8.07427 15.1519 7.55577 14.6749C7.18152 14.3307 6.8746 14.2192 6.62609 14.2192C6.37758 14.2192 6.07066 14.3307 5.69641 14.6749C5.17791 15.1519 4.59208 15.451 3.94783 15.451C3.30358 15.451 2.71775 15.1519 2.19925 14.6749C1.9505 14.4461 1.93217 14.0566 2.1583 13.805C2.38444 13.5533 2.7694 13.5347 3.01815 13.7635Z" fill="url(#paint9_linear_222_161)"/>
<path d="M4.43479 18.5303C4.43479 18.1902 4.70731 17.9144 5.04348 17.9144H28.1739C28.5101 17.9144 28.7826 17.6387 28.7826 17.2986C28.7826 16.9584 28.5101 16.6827 28.1739 16.6827H5.04348C4.03496 16.6827 3.2174 17.5099 3.2174 18.5303C3.2174 19.5507 4.03496 20.3779 5.04348 20.3779H26.9565C27.2927 20.3779 27.5652 20.6536 27.5652 20.9938C27.5652 21.3339 27.2927 21.6096 26.9565 21.6096H3.82609C3.48992 21.6096 3.2174 21.8853 3.2174 22.2255C3.2174 22.5656 3.48992 22.8413 3.82609 22.8413H26.9565C27.965 22.8413 28.7826 22.0141 28.7826 20.9938C28.7826 19.9734 27.965 19.1462 26.9565 19.1462H5.04348C4.70731 19.1462 4.43479 18.8704 4.43479 18.5303Z" fill="url(#paint10_linear_222_161)"/>
<path d="M11.5608 5.17039C11.3231 4.92988 11.3231 4.53994 11.5608 4.29943L12.4217 3.42846C12.6594 3.18795 13.0448 3.18795 13.2825 3.42846C13.5202 3.66897 13.5202 4.05892 13.2825 4.29943L12.4217 5.17039C12.184 5.4109 11.7986 5.4109 11.5608 5.17039Z" stroke="url(#paint11_linear_222_161)" stroke-width="2" mask="url(#path-1-inside-1_222_161)"/>
<path d="M8.39562 7.14991C8.15791 7.39042 8.15791 7.78036 8.39562 8.02087C8.63333 8.26138 9.01874 8.26138 9.25645 8.02087L10.1173 7.14991C10.355 6.9094 10.355 6.51945 10.1173 6.27894C9.87956 6.03843 9.49416 6.03843 9.25645 6.27894L8.39562 7.14991Z" stroke="url(#paint12_linear_222_161)" stroke-width="2" mask="url(#path-1-inside-1_222_161)"/>
<path d="M12.0478 8.38164C11.8101 8.62215 11.8101 9.01209 12.0478 9.2526C12.2855 9.49311 12.6709 9.49311 12.9086 9.2526L13.7694 8.38164C14.0072 8.14113 14.0072 7.75118 13.7694 7.51067C13.5317 7.27016 13.1463 7.27016 12.9086 7.51067L12.0478 8.38164Z" stroke="url(#paint13_linear_222_161)" stroke-width="2" mask="url(#path-1-inside-1_222_161)"/>
<path d="M15.7 4.68645C15.4623 4.92696 15.4623 5.3169 15.7 5.55741C15.9377 5.79792 16.3231 5.79792 16.5608 5.55741L17.4216 4.68645C17.6593 4.44594 17.6593 4.05599 17.4216 3.81548C17.1839 3.57497 16.7985 3.57497 16.5608 3.81548L15.7 4.68645Z" stroke="url(#paint14_linear_222_161)" stroke-width="2" mask="url(#path-1-inside-1_222_161)"/>
<path d="M19.3521 6.78914C19.1144 6.54863 19.1144 6.15869 19.3521 5.91818L20.213 5.04721C20.4507 4.8067 20.8361 4.8067 21.0738 5.04721C21.3115 5.28772 21.3115 5.67767 21.0738 5.91818L20.213 6.78914C19.9753 7.02965 19.5899 7.02965 19.3521 6.78914Z" stroke="url(#paint15_linear_222_161)" stroke-width="2" mask="url(#path-1-inside-1_222_161)"/>
<path d="M21.7869 8.38164C21.5492 8.62215 21.5492 9.01209 21.7869 9.2526C22.0246 9.49311 22.41 9.49311 22.6477 9.2526L23.5086 8.38164C23.7463 8.14113 23.7463 7.75118 23.5086 7.51067C23.2709 7.27016 22.8855 7.27016 22.6477 7.51067L21.7869 8.38164Z" stroke="url(#paint16_linear_222_161)" stroke-width="2" mask="url(#path-1-inside-1_222_161)"/>
<path d="M16.4304 9.62213C16.1927 9.38162 16.1927 8.99168 16.4304 8.75117L17.2912 7.8802C17.5289 7.63969 17.9143 7.63969 18.1521 7.8802C18.3898 8.12071 18.3898 8.51066 18.1521 8.75117L17.2912 9.62213C17.0535 9.86264 16.6681 9.86264 16.4304 9.62213Z" stroke="url(#paint17_linear_222_161)" stroke-width="2" mask="url(#path-1-inside-1_222_161)"/>
<path fill-rule="evenodd" clip-rule="evenodd" d="M4.69335 11.8532C3.34894 11.8249 2.25205 10.6793 2.63973 9.37656C2.82221 8.76333 3.06915 8.163 3.37872 7.58239C4.08806 6.25202 5.11239 5.0512 6.39322 4.04848C7.67405 3.04575 9.18631 2.26076 10.8436 1.73833C12.501 1.2159 14.2709 0.96626 16.0525 1.00366C17.834 1.04106 19.5922 1.36477 21.2267 1.9563C22.8612 2.54784 24.34 3.39561 25.5786 4.45123C26.8172 5.50684 27.7914 6.74962 28.4456 8.1086C28.5495 8.3244 28.645 8.54246 28.732 8.76244C29.4815 10.6571 27.7565 12.3373 25.7399 12.295L4.69335 11.8532ZM3.80543 9.73166C3.96369 9.19982 4.17868 8.67633 4.45015 8.1672C5.07215 7.00062 5.98044 5.92902 7.13821 5.02264C8.29631 4.116 9.6769 3.39624 11.2058 2.91431C12.7345 2.43243 14.3734 2.20041 16.0272 2.23512C17.681 2.26984 19.3091 2.57045 20.8167 3.11607C22.3245 3.66175 23.6744 4.43883 24.7943 5.39329C25.9139 6.34748 26.7775 7.45627 27.3511 8.64795C27.4422 8.83722 27.5258 9.02804 27.6018 9.22013C27.7842 9.68128 27.6843 10.0819 27.3753 10.4233C27.0373 10.7968 26.4462 11.0778 25.7652 11.0635L4.7186 10.6217C4.3739 10.6145 4.09067 10.4628 3.93091 10.2791C3.78758 10.1143 3.74432 9.93701 3.80543 9.73166Z" stroke="url(#paint18_linear_222_161)" stroke-width="2" mask="url(#path-1-inside-1_222_161)"/>
<path d="M4.43478 24.0731C3.09009 24.0731 2 25.176 2 26.5365C2 27.8971 3.09009 29 4.43478 29H22.0869C22.4231 29 22.6956 28.7243 22.6956 28.3841C22.6956 28.044 22.4231 27.7683 22.0869 27.7683H4.43478C3.76244 27.7683 3.21739 27.2168 3.21739 26.5365C3.21739 25.8563 3.76244 25.3048 4.43478 25.3048H27.5652C28.2376 25.3048 28.7826 25.8563 28.7826 26.5365C28.7826 27.2168 28.2376 27.7683 27.5652 27.7683H25.1304C24.7943 27.7683 24.5217 28.044 24.5217 28.3841C24.5217 28.7243 24.7943 29 25.1304 29H27.5652C28.9099 29 30 27.8971 30 26.5365C30 25.176 28.9099 24.0731 27.5652 24.0731H4.43478Z" stroke="url(#paint19_linear_222_161)" stroke-width="2" mask="url(#path-1-inside-1_222_161)"/>
<path d="M3.01815 13.7635C3.3924 14.1078 3.69932 14.2192 3.94783 14.2192C4.19634 14.2192 4.50326 14.1078 4.87751 13.7635C5.39601 13.2866 5.98184 12.9875 6.62609 12.9875C7.27034 12.9875 7.85617 13.2866 8.37467 13.7635C8.74892 14.1078 9.05584 14.2192 9.30435 14.2192C9.55286 14.2192 9.85978 14.1078 10.234 13.7635C10.7525 13.2866 11.3384 12.9875 11.9826 12.9875C12.6269 12.9875 13.2127 13.2866 13.7312 13.7635C14.1054 14.1078 14.4124 14.2192 14.6609 14.2192C14.9094 14.2192 15.2163 14.1078 15.5905 13.7635C16.1091 13.2866 16.6949 12.9875 17.3391 12.9875C17.9834 12.9875 18.5692 13.2866 19.0877 13.7635C19.462 14.1078 19.7689 14.2192 20.0174 14.2192C20.2659 14.2192 20.5728 14.1078 20.9471 13.7635C21.4656 13.2866 22.0514 12.9875 22.6956 12.9875C23.3399 12.9875 23.9257 13.2866 24.4442 13.7635C24.8185 14.1078 25.1254 14.2192 25.3739 14.2192C25.6224 14.2192 25.9293 14.1078 26.3036 13.7635C26.8221 13.2866 27.4079 12.9875 28.0522 12.9875C28.6964 12.9875 29.2822 13.2866 29.8008 13.7635C30.0495 13.9923 30.0678 14.3818 29.8417 14.6335C29.6156 14.8852 29.2306 14.9037 28.9818 14.6749C28.6076 14.3307 28.3007 14.2192 28.0522 14.2192C27.8037 14.2192 27.4967 14.3307 27.1225 14.6749C26.604 15.1519 26.0182 15.451 25.3739 15.451C24.7297 15.451 24.1438 15.1519 23.6253 14.6749C23.2511 14.3307 22.9442 14.2192 22.6956 14.2192C22.4471 14.2192 22.1402 14.3307 21.766 14.6749C21.2475 15.1519 20.6616 15.451 20.0174 15.451C19.3731 15.451 18.7873 15.1519 18.2688 14.6749C17.8946 14.3307 17.5876 14.2192 17.3391 14.2192C17.0906 14.2192 16.7837 14.3307 16.4095 14.6749C15.8909 15.1519 15.3051 15.451 14.6609 15.451C14.0166 15.451 13.4308 15.1519 12.9123 14.6749C12.538 14.3307 12.2311 14.2192 11.9826 14.2192C11.7341 14.2192 11.4272 14.3307 11.0529 14.6749C10.5344 15.1519 9.9486 15.451 9.30435 15.451C8.6601 15.451 8.07427 15.1519 7.55577 14.6749C7.18152 14.3307 6.8746 14.2192 6.62609 14.2192C6.37758 14.2192 6.07066 14.3307 5.69641 14.6749C5.17791 15.1519 4.59208 15.451 3.94783 15.451C3.30358 15.451 2.71775 15.1519 2.19925 14.6749C1.9505 14.4461 1.93217 14.0566 2.1583 13.805C2.38444 13.5533 2.7694 13.5347 3.01815 13.7635Z" stroke="url(#paint20_linear_222_161)" stroke-width="2" mask="url(#path-1-inside-1_222_161)"/>
<path d="M4.43479 18.5303C4.43479 18.1902 4.70731 17.9144 5.04348 17.9144H28.1739C28.5101 17.9144 28.7826 17.6387 28.7826 17.2986C28.7826 16.9584 28.5101 16.6827 28.1739 16.6827H5.04348C4.03496 16.6827 3.2174 17.5099 3.2174 18.5303C3.2174 19.5507 4.03496 20.3779 5.04348 20.3779H26.9565C27.2927 20.3779 27.5652 20.6536 27.5652 20.9938C27.5652 21.3339 27.2927 21.6096 26.9565 21.6096H3.82609C3.48992 21.6096 3.2174 21.8853 3.2174 22.2255C3.2174 22.5656 3.48992 22.8413 3.82609 22.8413H26.9565C27.965 22.8413 28.7826 22.0141 28.7826 20.9938C28.7826 19.9734 27.965 19.1462 26.9565 19.1462H5.04348C4.70731 19.1462 4.43479 18.8704 4.43479 18.5303Z" stroke="url(#paint21_linear_222_161)" stroke-width="2" mask="url(#path-1-inside-1_222_161)"/>
<defs>
<linearGradient id="paint0_linear_222_161" x1="2" y1="29" x2="30" y2="29" gradientUnits="userSpaceOnUse">
<stop stop-color="#7CB855"/>
<stop offset="1" stop-color="#BBE06C"/>
</linearGradient>
<linearGradient id="paint1_linear_222_161" x1="2" y1="29" x2="30" y2="29" gradientUnits="userSpaceOnUse">
<stop stop-color="#7CB855"/>
<stop offset="1" stop-color="#BBE06C"/>
</linearGradient>
<linearGradient id="paint2_linear_222_161" x1="2" y1="29" x2="30" y2="29" gradientUnits="userSpaceOnUse">
<stop stop-color="#7CB855"/>
<stop offset="1" stop-color="#BBE06C"/>
</linearGradient>
<linearGradient id="paint3_linear_222_161" x1="2" y1="29" x2="30" y2="29" gradientUnits="userSpaceOnUse">
<stop stop-color="#7CB855"/>
<stop offset="1" stop-color="#BBE06C"/>
</linearGradient>
<linearGradient id="paint4_linear_222_161" x1="2" y1="29" x2="30" y2="29" gradientUnits="userSpaceOnUse">
<stop stop-color="#7CB855"/>
<stop offset="1" stop-color="#BBE06C"/>
</linearGradient>
<linearGradient id="paint5_linear_222_161" x1="2" y1="29" x2="30" y2="29" gradientUnits="userSpaceOnUse">
<stop stop-color="#7CB855"/>
<stop offset="1" stop-color="#BBE06C"/>
</linearGradient>
<linearGradient id="paint6_linear_222_161" x1="2" y1="29" x2="30" y2="29" gradientUnits="userSpaceOnUse">
<stop stop-color="#7CB855"/>
<stop offset="1" stop-color="#BBE06C"/>
</linearGradient>
<linearGradient id="paint7_linear_222_161" x1="2" y1="29" x2="30" y2="29" gradientUnits="userSpaceOnUse">
<stop stop-color="#7CB855"/>
<stop offset="1" stop-color="#BBE06C"/>
</linearGradient>
<linearGradient id="paint8_linear_222_161" x1="2" y1="29" x2="30" y2="29" gradientUnits="userSpaceOnUse">
<stop stop-color="#7CB855"/>
<stop offset="1" stop-color="#BBE06C"/>
</linearGradient>
<linearGradient id="paint9_linear_222_161" x1="2" y1="29" x2="30" y2="29" gradientUnits="userSpaceOnUse">
<stop stop-color="#7CB855"/>
<stop offset="1" stop-color="#BBE06C"/>
</linearGradient>
<linearGradient id="paint10_linear_222_161" x1="2" y1="29" x2="30" y2="29" gradientUnits="userSpaceOnUse">
<stop stop-color="#7CB855"/>
<stop offset="1" stop-color="#BBE06C"/>
</linearGradient>
<linearGradient id="paint11_linear_222_161" x1="2" y1="29" x2="30" y2="29" gradientUnits="userSpaceOnUse">
<stop stop-color="#7CB855"/>
<stop offset="1" stop-color="#BBE06C"/>
</linearGradient>
<linearGradient id="paint12_linear_222_161" x1="2" y1="29" x2="30" y2="29" gradientUnits="userSpaceOnUse">
<stop stop-color="#7CB855"/>
<stop offset="1" stop-color="#BBE06C"/>
</linearGradient>
<linearGradient id="paint13_linear_222_161" x1="2" y1="29" x2="30" y2="29" gradientUnits="userSpaceOnUse">
<stop stop-color="#7CB855"/>
<stop offset="1" stop-color="#BBE06C"/>
</linearGradient>
<linearGradient id="paint14_linear_222_161" x1="2" y1="29" x2="30" y2="29" gradientUnits="userSpaceOnUse">
<stop stop-color="#7CB855"/>
<stop offset="1" stop-color="#BBE06C"/>
</linearGradient>
<linearGradient id="paint15_linear_222_161" x1="2" y1="29" x2="30" y2="29" gradientUnits="userSpaceOnUse">
<stop stop-color="#7CB855"/>
<stop offset="1" stop-color="#BBE06C"/>
</linearGradient>
<linearGradient id="paint16_linear_222_161" x1="2" y1="29" x2="30" y2="29" gradientUnits="userSpaceOnUse">
<stop stop-color="#7CB855"/>
<stop offset="1" stop-color="#BBE06C"/>
</linearGradient>
<linearGradient id="paint17_linear_222_161" x1="2" y1="29" x2="30" y2="29" gradientUnits="userSpaceOnUse">
<stop stop-color="#7CB855"/>
<stop offset="1" stop-color="#BBE06C"/>
</linearGradient>
<linearGradient id="paint18_linear_222_161" x1="2" y1="29" x2="30" y2="29" gradientUnits="userSpaceOnUse">
<stop stop-color="#7CB855"/>
<stop offset="1" stop-color="#BBE06C"/>
</linearGradient>
<linearGradient id="paint19_linear_222_161" x1="2" y1="29" x2="30" y2="29" gradientUnits="userSpaceOnUse">
<stop stop-color="#7CB855"/>
<stop offset="1" stop-color="#BBE06C"/>
</linearGradient>
<linearGradient id="paint20_linear_222_161" x1="2" y1="29" x2="30" y2="29" gradientUnits="userSpaceOnUse">
<stop stop-color="#7CB855"/>
<stop offset="1" stop-color="#BBE06C"/>
</linearGradient>
<linearGradient id="paint21_linear_222_161" x1="2" y1="29" x2="30" y2="29" gradientUnits="userSpaceOnUse">
<stop stop-color="#7CB855"/>
<stop offset="1" stop-color="#BBE06C"/>
</linearGradient>
</defs>
</svg>
