<svg width="32" height="32" viewBox="0 0 32 32" fill="none" xmlns="http://www.w3.org/2000/svg">
<path d="M26.4792 13.7211L24.8142 10.3266L24.9985 14.1036C25.1388 16.9361 23.8304 18.505 22.7711 19.3045C23.1636 16.392 23.5065 10.1993 20.3632 5.59475C18.3979 2.71691 15.4031 0.955908 11.4592 0.360358L9.07636 0L10.7966 1.68863C12.8492 3.70342 13.8932 5.83594 13.8993 8.0287C13.9023 9.29367 13.5567 10.4249 13.1277 11.3412C13.0253 9.74134 12.4541 7.93649 10.6187 6.94469L9.37896 6.27527L9.4681 7.68048C9.67073 10.8833 8.30298 12.8379 6.85391 14.9079C5.39082 16.9978 3.87858 19.1582 4.15789 22.5333C4.63453 28.2949 8.17416 31.4741 14.6789 31.9824C14.8294 31.9946 14.9864 32 15.1464 32C18.4795 32 23.5012 29.4738 26.1364 25.2446C27.668 22.7901 28.9695 18.7962 26.4792 13.7211ZM15.1471 30.4401C15.1113 30.4401 15.0785 30.4371 15.0443 30.4363C15.1471 30.434 15.2401 30.4324 15.3281 30.4317C15.2686 30.4332 15.2058 30.4401 15.1471 30.4401ZM24.8135 24.4201C22.6866 27.8324 18.7226 30.0446 15.887 30.3883C18.961 29.4289 20.7023 17.8529 14.4159 15.9817C16.0741 18.8595 13.5335 21.551 11.3415 22.8564C9.14958 24.1617 7.67082 25.3902 8.56506 28.1974C8.59782 28.3003 8.64702 28.3888 8.69081 28.4824C6.91565 27.1534 5.94258 25.1516 5.71548 22.4052C5.48192 19.5919 6.77051 17.7515 8.13376 15.8038C9.3507 14.066 10.7006 12.1361 10.9925 9.39208C12.0868 11.221 11.3171 14.0599 11.3073 14.0949L10.5205 16.9118L12.6057 14.8627C12.722 14.748 15.4607 12.0101 15.4599 8.04593C15.4592 6.09815 14.8016 4.21597 13.5015 2.42749C15.8871 3.1899 17.754 4.54402 19.0716 6.47045C22.849 11.9952 20.9897 20.5048 20.9706 20.5917L20.6681 21.9313L21.9743 21.5031C22.0116 21.4909 24.9309 20.4942 26.0968 17.3233C26.7246 20.369 25.8285 22.7901 24.8135 24.4201Z" fill="url(#paint0_linear_222_164)"/>
<path d="M22.1349 4.74058C22.5289 5.3251 22.7255 5.83372 22.8535 6.50543C22.9808 7.17753 23.3427 8.61857 23.3427 8.61857L23.9493 6.59386C24.4652 4.75428 23.8114 3.19134 22.0252 2.63436L19.1836 2.07881C19.1836 2.07881 20.2405 2.96046 20.8365 3.40056C21.1359 3.62074 21.7402 4.15612 22.1349 4.74058Z" fill="url(#paint1_linear_222_164)"/>
<defs>
<linearGradient id="paint0_linear_222_164" x1="4.1243" y1="32" x2="27.8757" y2="32" gradientUnits="userSpaceOnUse">
<stop stop-color="#7CB855"/>
<stop offset="1" stop-color="#BBE06C"/>
</linearGradient>
<linearGradient id="paint1_linear_222_164" x1="19.1836" y1="8.61857" x2="24.1203" y2="8.61857" gradientUnits="userSpaceOnUse">
<stop stop-color="#7CB855"/>
<stop offset="1" stop-color="#BBE06C"/>
</linearGradient>
</defs>
</svg>
