<svg width="19" height="18" viewBox="0 0 19 18" fill="none" xmlns="http://www.w3.org/2000/svg">
<path d="M15.9085 14.4675L13.3299 11.925C14.1619 10.8768 14.6133 9.5825 14.6116 8.25C14.6116 7.06332 14.2558 5.90328 13.5891 4.91658C12.9224 3.92989 11.9749 3.16085 10.8662 2.70673C9.75756 2.2526 8.53763 2.13378 7.3607 2.36529C6.18376 2.5968 5.10267 3.16825 4.25415 4.00736C3.40562 4.84648 2.82777 5.91558 2.59367 7.07946C2.35956 8.24335 2.47971 9.44975 2.93893 10.5461C3.39815 11.6425 4.1758 12.5795 5.17356 13.2388C6.17132 13.8981 7.34437 14.25 8.54436 14.25C9.8918 14.2517 11.2007 13.8052 12.2606 12.9825L14.8316 15.5325C14.9021 15.6028 14.986 15.6586 15.0784 15.6967C15.1708 15.7348 15.2699 15.7544 15.3701 15.7544C15.4702 15.7544 15.5693 15.7348 15.6617 15.6967C15.7541 15.6586 15.838 15.6028 15.9085 15.5325C15.9796 15.4628 16.036 15.3798 16.0745 15.2884C16.113 15.197 16.1329 15.099 16.1329 15C16.1329 14.901 16.113 14.803 16.0745 14.7116C16.036 14.6202 15.9796 14.5372 15.9085 14.4675V14.4675ZM3.9939 8.25C3.9939 7.35999 4.26078 6.48996 4.76079 5.74994C5.26081 5.00992 5.97149 4.43314 6.80298 4.09255C7.63447 3.75195 8.54941 3.66284 9.43211 3.83647C10.3148 4.0101 11.1256 4.43869 11.762 5.06802C12.3984 5.69736 12.8318 6.49918 13.0074 7.3721C13.183 8.24501 13.0929 9.14981 12.7484 9.97208C12.404 10.7943 11.8208 11.4972 11.0725 11.9916C10.3241 12.4861 9.44436 12.75 8.54436 12.75C7.33751 12.75 6.18008 12.2759 5.3267 11.432C4.47333 10.5881 3.9939 9.44348 3.9939 8.25Z" fill="#3E5481"/>
</svg>
